0
SECTION
2
HEADER
9
$INSUNITS
70
1
0
ENDSEC
0
SECTION
2
TABLES
0
TABLE
2
LAYER
0
ENDTAB
0
ENDSEC
0
SECTION
2
ENTITIES
0
LINE
8
front_outsideCutPath
10
0
20
15
11
0
21
3
0
LINE
8
front_outsideCutPath
10
0
20
3
11
56
21
3
0
LINE
8
front_outsideCutPath
10
56
20
3
11
56
21
15
0
LINE
8
front_outsideCutPath
10
56
20
15
11
0
21
15
0
LINE
8
front_labelLayer
10
26.011914
20
9.3779551
11
26.011914
21
9.2267833
0
LINE
8
front_labelLayer
10
26.011914
20
9.2267833
11
25.6849609
21
9.2267833
0
LINE
8
front_labelLayer
10
25.6849609
20
9.2267833
11
25.6849609
21
8.0935801
0
LINE
8
front_labelLayer
10
25.6849609
20
8.0935801
11
25.4904297
21
8.0935801
0
LINE
8
front_labelLayer
10
25.4904297
20
8.0935801
11
25.4904297
21
9.2267833
0
LINE
8
front_labelLayer
10
25.4904297
20
9.2267833
11
25.2607422
21
9.2267833
0
LINE
8
front_labelLayer
10
25.2607422
20
9.2267833
11
25.2607422
21
9.3146739
0
LINE
8
front_labelLayer
10
25.2607422
20
9.3146739
11
25.4904297
21
9.3849864
0
LINE
8
front_labelLayer
10
25.4904297
20
9.3849864
11
25.4904297
21
9.4564708
0
LINE
8
front_labelLayer
10
26.143164
20
9.8888926
11
26.0927734
21
9.7330333
0
LINE
8
front_labelLayer
10
25.6849609
20
9.4611583
11
25.6849609
21
9.3779551
0
LINE
8
front_labelLayer
10
25.6849609
20
9.3779551
11
26.011914
21
9.3779551
0
ARC
8
front_labelLayer
10
26.278803
20
9.4655335
40
0.7884254
50
167.5776408
51
180.6586147
0
ARC
8
front_labelLayer
10
25.9080572
20
9.551969
40
0.4077924
50
141.7434163
51
168.2321663
0
ARC
8
front_labelLayer
10
25.8476916
20
9.5834761
40
0.3411159
50
98.2550772
51
139.6204114
0
ARC
8
front_labelLayer
10
25.9006917
20
9.3386404
40
0.5912776
50
89.6695765
51
99.931461
0
ARC
8
front_labelLayer
10
25.9008422
20
9.303486
40
0.6264307
50
81.5641687
51
89.7018874
0
ARC
8
front_labelLayer
10
25.8568074
20
8.996266
40
0.9367879
50
75.9739292
51
81.6566006
0
ARC
8
front_labelLayer
10
25.7811686
20
8.6825595
40
1.2594762
50
73.2965929
51
76.0943596
0
ARC
8
front_labelLayer
10
25.8002711
20
8.8348669
40
0.9445954
50
71.9613262
51
76.59203
0
ARC
8
front_labelLayer
10
25.8735424
20
9.1456984
40
0.6252462
50
76.5184967
51
83.0216858
0
ARC
8
front_labelLayer
10
25.8990741
20
9.3510223
40
0.4183418
50
83.0760612
51
89.7929372
0
ARC
8
front_labelLayer
10
25.8982328
20
9.5070197
40
0.2623523
50
89.4860917
51
103.4196111
0
ARC
8
front_labelLayer
10
25.8745796
20
9.5978958
40
0.1684788
50
102.7677349
51
144.3380944
0
ARC
8
front_labelLayer
10
25.9222325
20
9.5672359
40
0.2250886
50
145.069033
51
162.1800995
0
ARC
8
front_labelLayer
10
26.0856102
20
9.512269
40
0.3974562
50
161.8439301
51
171.7847217
0
ARC
8
front_labelLayer
10
26.3520589
20
9.4722479
40
0.6668912
50
171.6526893
51
178.438394
0
ARC
8
front_labelLayer
10
26.6035691
20
9.4615296
40
0.9186082
50
178.1976236
51
180.0231636
0
LINE
8
front_labelLayer
10
26.9857422
20
9.3873301
11
26.958789
21
9.2068614
0
LINE
8
front_labelLayer
10
26.4408203
20
8.7826426
11
26.4408203
21
8.0935801
0
LINE
8
front_labelLayer
10
26.4408203
20
8.0935801
11
26.246289
21
8.0935801
0
LINE
8
front_labelLayer
10
26.246289
20
8.0935801
11
26.246289
21
9.3779551
0
LINE
8
front_labelLayer
10
26.246289
20
9.3779551
11
26.4068359
21
9.3779551
0
LINE
8
front_labelLayer
10
26.4068359
20
9.3779551
11
26.4291015
21
9.1400645
0
LINE
8
front_labelLayer
10
26.4291015
20
9.1400645
11
26.4384765
21
9.1400645
0
ARC
8
front_labelLayer
10
26.8342254
20
8.5083773
40
0.8930176
50
84.9921779
51
90.1282471
0
ARC
8
front_labelLayer
10
26.8556702
20
8.7486304
40
0.6518097
50
78.4890565
51
85.0265308
0
ARC
8
front_labelLayer
10
26.7724077
20
8.3699127
40
0.8574503
50
77.4455743
51
81.6357447
0
ARC
8
front_labelLayer
10
26.8097847
20
8.627535
40
0.5971314
50
81.5881674
51
87.191865
0
ARC
8
front_labelLayer
10
26.8178887
20
8.7679905
40
0.4564491
50
87.3441447
51
89.9654358
0
ARC
8
front_labelLayer
10
26.8160079
20
8.8873815
40
0.3370649
50
89.6334865
51
137.088065
0
ARC
8
front_labelLayer
10
26.8988137
20
8.794283
40
0.4612512
50
135.6214916
51
138.8375246
0
ARC
8
front_labelLayer
10
26.8866101
20
8.8061893
40
0.4442281
50
138.9576303
51
174.5421695
0
ARC
8
front_labelLayer
10
27.031286
20
8.783554
40
0.5904663
50
173.6909434
51
180.0884391
0
ARC
8
front_labelLayer
10
27.0108305
20
8.8176032
40
0.6569402
50
139.4139811
51
150.6033089
0
ARC
8
front_labelLayer
10
26.8930377
20
8.9185379
40
0.5018177
50
124.2320422
51
139.4160557
0
ARC
8
front_labelLayer
10
26.8300585
20
9.0136063
40
0.3877924
50
89.6796778
51
124.4405592
0
ARC
8
front_labelLayer
10
27.3297668
20
8.7301644
40
1.0048264
50
349.1761699
51
0.3863228
0
ARC
8
front_labelLayer
10
27.6680652
20
8.6627237
40
0.6598873
50
330.2506367
51
349.4116316
0
ARC
8
front_labelLayer
10
27.7721788
20
8.608608
40
0.5426632
50
318.1439498
51
329.7566718
0
ARC
8
front_labelLayer
10
27.7909675
20
8.5935502
40
0.5186231
50
278.8958687
51
317.9979494
0
ARC
8
front_labelLayer
10
27.7425489
20
8.8255303
40
0.7553949
50
269.7503707
51
279.8032838
0
ARC
8
front_labelLayer
10
27.7346983
20
8.694823
40
0.624697
50
253.5437066
51
270.4181879
0
ARC
8
front_labelLayer
10
27.7139039
20
8.6143839
40
0.5416698
50
238.8116378
51
253.2428313
0
ARC
8
front_labelLayer
10
27.7071911
20
8.6008839
40
0.5266461
50
207.794665
51
238.6758103
0
ARC
8
front_labelLayer
10
27.8034759
20
8.6598567
40
0.6393627
50
205.6560532
51
208.446243
0
ARC
8
front_labelLayer
10
27.8776726
20
8.690772
40
0.7196422
50
188.91029
51
205.3170881
0
ARC
8
front_labelLayer
10
28.1276458
20
8.73311
40
0.9731613
50
179.7745358
51
189.0933513
0
ARC
8
front_labelLayer
10
28.1645216
20
8.7437807
40
1.0100526
50
169.2443005
51
180.3880748
0
ARC
8
front_labelLayer
10
27.8215142
20
8.8115807
40
0.6604234
50
150.7111153
51
169.4695401
0
ARC
8
front_labelLayer
10
27.7120231
20
8.8678084
40
0.5374409
50
138.1760864
51
150.2287316
0
ARC
8
front_labelLayer
10
27.693803
20
8.8817892
40
0.5145431
50
99.175931
51
137.9832765
0
ARC
8
front_labelLayer
10
27.7439352
20
8.645864
40
0.7555369
50
89.7326309
51
100.0760165
0
ARC
8
front_labelLayer
10
27.7539543
20
8.7477481
40
0.6536768
50
73.5222805
51
90.5691663
0
ARC
8
front_labelLayer
10
27.7922895
20
8.8870293
40
0.5092498
50
41.1445346
51
73.2134032
0
ARC
8
front_labelLayer
10
27.7191121
20
8.8241338
40
0.6057396
50
13.5014685
51
41.0703576
0
ARC
8
front_labelLayer
10
27.4363926
20
8.7501503
40
0.8979382
50
1.1277436
51
13.879995
0
ARC
8
front_labelLayer
10
27.1922746
20
8.7370936
40
1.1422957
50
359.9922699
51
1.541533
0
ARC
8
front_labelLayer
10
28.3411659
20
8.7318854
40
0.9851242
50
179.7060479
51
187.9159815
0
ARC
8
front_labelLayer
10
27.9798359
20
8.6799813
40
0.6200911
50
187.7638148
51
200.0976492
0
ARC
8
front_labelLayer
10
27.7808006
20
8.6070558
40
0.4081165
50
200.0846988
51
216.9131328
0
ARC
8
front_labelLayer
10
27.7081149
20
8.5551549
40
0.3188364
50
217.3009482
51
261.7099091
0
ARC
8
front_labelLayer
10
27.7418568
20
8.7161714
40
0.4831426
50
260.5033835
51
270.2476736
0
ARC
8
front_labelLayer
10
27.7482979
20
8.6848518
40
0.4518395
50
269.4480569
51
284.7256894
0
ARC
8
front_labelLayer
10
27.784067
20
8.552199
40
0.3144528
50
284.5662532
51
322.6334136
0
ARC
8
front_labelLayer
10
27.7004403
20
8.6126167
40
0.4175941
50
323.0088034
51
342.6392051
0
ARC
8
front_labelLayer
10
27.4612283
20
8.6907983
40
0.669245
50
342.36164
51
353.7538132
0
ARC
8
front_labelLayer
10
27.1083167
20
8.7333373
40
1.0246974
50
353.5363377
51
0.2014178
0
ARC
8
front_labelLayer
10
27.1623917
20
8.7418935
40
0.9706287
50
359.7075688
51
7.8972734
0
ARC
8
front_labelLayer
10
27.5178779
20
8.792857
40
0.6115139
50
7.7438612
51
20.069193
0
ARC
8
front_labelLayer
10
27.7159447
20
8.8655421
40
0.4005319
50
20.0257133
51
37.4350115
0
ARC
8
front_labelLayer
10
27.7816676
20
8.9121774
40
0.3200105
50
37.9578189
51
80.4005762
0
ARC
8
front_labelLayer
10
27.7443202
20
8.745535
40
0.4906307
50
79.3453637
51
90.3174859
0
ARC
8
front_labelLayer
10
27.737404
20
8.7732173
40
0.46296
50
89.4805072
51
103.8804736
0
ARC
8
front_labelLayer
10
27.6985042
20
8.9213492
40
0.3098297
50
103.4685548
51
142.3118849
0
ARC
8
front_labelLayer
10
27.7741308
20
8.8681635
40
0.4022141
50
142.902603
51
162.3749538
0
ARC
8
front_labelLayer
10
28.0124327
20
8.7887513
40
0.6533842
50
162.0654193
51
173.1675171
0
ARC
8
front_labelLayer
10
28.3839842
20
8.7413614
40
1.0279389
50
173.0086026
51
180.2464681
0
LINE
8
front_labelLayer
10
29.7490234
20
8.0935801
11
29.5544922
21
8.0935801
0
LINE
8
front_labelLayer
10
29.5544922
20
8.0935801
11
29.5544922
21
8.9244395
0
LINE
8
front_labelLayer
10
28.8701172
20
8.7674083
11
28.8701172
21
8.0935801
0
LINE
8
front_labelLayer
10
28.8701172
20
8.0935801
11
28.6755859
21
8.0935801
0
LINE
8
front_labelLayer
10
28.6755859
20
8.0935801
11
28.6755859
21
9.3779551
0
LINE
8
front_labelLayer
10
28.6755859
20
9.3779551
11
28.833789
21
9.3779551
0
LINE
8
front_labelLayer
10
28.833789
20
9.3779551
11
28.8654297
21
9.2021739
0
LINE
8
front_labelLayer
10
28.8654297
20
9.2021739
11
28.8748047
21
9.2021739
0
LINE
8
front_labelLayer
10
29.7490234
20
8.9314708
11
29.7490234
21
8.0935801
0
ARC
8
front_labelLayer
10
29.0046219
20
8.9275943
40
0.5498794
50
359.6712825
51
8.6877852
0
ARC
8
front_labelLayer
10
29.2084156
20
8.9599151
40
0.3435437
50
8.4931661
51
22.6580205
0
ARC
8
front_labelLayer
10
29.3119635
20
9.0029465
40
0.2314108
50
22.7024566
51
42.3420575
0
ARC
8
front_labelLayer
10
29.3236013
20
9.0081814
40
0.2193188
50
43.3790936
51
71.5385292
0
ARC
8
front_labelLayer
10
29.2800756
20
8.8865566
40
0.3484785
50
71.0828991
51
84.3689751
0
ARC
8
front_labelLayer
10
29.2605394
20
8.7204558
40
0.5157043
50
84.0196878
51
90.1510721
0
ARC
8
front_labelLayer
10
29.2550017
20
8.6474099
40
0.5887632
50
89.5934112
51
100.3717677
0
ARC
8
front_labelLayer
10
29.2133922
20
8.8657187
40
0.366534
50
100.1175239
51
118.1603563
0
ARC
8
front_labelLayer
10
29.1714655
20
8.947933
40
0.2742706
50
118.5439912
51
139.192595
0
ARC
8
front_labelLayer
10
29.2080275
20
8.9234007
40
0.3180217
50
140.1520414
51
160.3145523
0
ARC
8
front_labelLayer
10
29.4287862
20
8.8407133
40
0.5537432
50
159.9533452
51
171.3802739
0
ARC
8
front_labelLayer
10
29.7894549
20
8.782737
40
0.9190332
50
171.1766643
51
178.3216981
0
ARC
8
front_labelLayer
10
30.1163131
20
8.7679285
40
1.2461959
50
178.0812771
51
180.0239201
0
ARC
8
front_labelLayer
10
29.207579
20
8.9914172
40
0.3938999
50
116.9442303
51
147.6526124
0
ARC
8
front_labelLayer
10
29.2485281
20
8.9229381
40
0.4735321
50
115.8066337
51
117.6066395
0
ARC
8
front_labelLayer
10
29.2695419
20
8.8739638
40
0.5267758
50
94.3227757
51
115.5453572
0
ARC
8
front_labelLayer
10
29.2821512
20
8.76442
40
0.636973
50
89.9580884
51
94.7110517
0
ARC
8
front_labelLayer
10
29.2873601
20
8.6333718
40
0.7680355
50
80.558444
51
90.3538248
0
ARC
8
front_labelLayer
10
29.3353585
20
8.9113887
40
0.4859142
50
65.1093731
51
80.7638391
0
ARC
8
front_labelLayer
10
29.3914677
20
9.0356662
40
0.3495677
50
46.5583442
51
64.8783606
0
ARC
8
front_labelLayer
10
29.3959553
20
9.0486082
40
0.3371323
50
19.3848412
51
45.5996418
0
ARC
8
front_labelLayer
10
29.2009266
20
8.9754282
40
0.5454113
50
6.9631997
51
19.8364749
0
ARC
8
front_labelLayer
10
28.9001095
20
8.9349816
40
0.8489211
50
359.7630447
51
7.2115535
0
LINE
8
front_labelLayer
10
30.7392578
20
8.254127
11
30.7392578
21
8.1052989
0
LINE
8
front_labelLayer
10
30.1626953
20
8.4627208
11
30.1626953
21
9.2267833
0
LINE
8
front_labelLayer
10
30.1626953
20
9.2267833
11
29.9787109
21
9.2267833
0
LINE
8
front_labelLayer
10
29.9787109
20
9.2267833
11
29.9787109
21
9.3205333
0
LINE
8
front_labelLayer
10
29.9787109
20
9.3205333
11
30.1626953
21
9.4013926
0
LINE
8
front_labelLayer
10
30.1626953
20
9.4013926
11
30.2447265
21
9.6756114
0
LINE
8
front_labelLayer
10
30.2447265
20
9.6756114
11
30.3572265
21
9.6756114
0
LINE
8
front_labelLayer
10
30.3572265
20
9.6756114
11
30.3572265
21
9.3779551
0
LINE
8
front_labelLayer
10
30.3572265
20
9.3779551
11
30.7298828
21
9.3779551
0
LINE
8
front_labelLayer
10
30.7298828
20
9.3779551
11
30.7298828
21
9.2267833
0
LINE
8
front_labelLayer
10
30.7298828
20
9.2267833
11
30.3572265
21
9.2267833
0
LINE
8
front_labelLayer
10
30.3572265
20
9.2267833
11
30.3572265
21
8.4709239
0
ARC
8
front_labelLayer
10
30.564812
20
8.8695553
40
0.6388671
50
269.8802342
51
278.3027144
0
ARC
8
front_labelLayer
10
30.5703966
20
8.8230956
40
0.592089
50
278.4171709
51
279.0064816
0
ARC
8
front_labelLayer
10
30.4991776
20
9.2780188
40
1.0525527
50
278.9588206
51
280.5099454
0
ARC
8
front_labelLayer
10
30.5675203
20
8.9112661
40
0.6794867
50
280.4848072
51
282.6268001
0
ARC
8
front_labelLayer
10
30.6273849
20
8.6452779
40
0.4068453
50
282.5885192
51
285.5787386
0
ARC
8
front_labelLayer
10
30.6574867
20
8.5345565
40
0.2921082
50
285.7238148
51
286.2562754
0
ARC
8
front_labelLayer
10
30.6574662
20
8.2782926
40
0.1913549
50
287.9893134
51
295.3048201
0
ARC
8
front_labelLayer
10
30.6113028
20
8.4179742
40
0.3384659
50
283.3073884
51
288.1192361
0
ARC
8
front_labelLayer
10
30.5625721
20
8.6212584
40
0.5475087
50
280.0068601
51
283.3734471
0
ARC
8
front_labelLayer
10
30.529805
20
8.7991118
40
0.7283515
50
279.1871698
51
280.1141343
0
ARC
8
front_labelLayer
10
30.5099348
20
8.9121249
40
0.8430888
50
275.5257978
51
279.2939761
0
ARC
8
front_labelLayer
10
30.5324888
20
8.6764969
40
0.6063841
50
270.8933064
51
275.5485083
0
ARC
8
front_labelLayer
10
30.5353241
20
8.5679565
40
0.497814
50
270.0031609
51
270.7617874
0
ARC
8
front_labelLayer
10
30.5275016
20
8.5781701
40
0.5080881
50
253.7848298
51
270.8852574
0
ARC
8
front_labelLayer
10
30.4673068
20
8.3728818
40
0.2941575
50
190.3817526
51
253.8772446
0
ARC
8
front_labelLayer
10
30.7741196
20
8.4558384
40
0.611463
50
179.355094
51
192.8477427
0
ARC
8
front_labelLayer
10
30.748955
20
8.468475
40
0.3917361
50
179.6418218
51
189.7503771
0
ARC
8
front_labelLayer
10
30.6106568
20
8.4438097
40
0.2512599
50
189.5480239
51
205.7873182
0
ARC
8
front_labelLayer
10
30.5538345
20
8.4176093
40
0.1887017
50
206.1298876
51
221.4079835
0
ARC
8
front_labelLayer
10
30.5474539
20
8.4127685
40
0.1807153
50
221.5949044
51
262.3504346
0
ARC
8
front_labelLayer
10
30.5626085
20
8.4907044
40
0.2600163
50
261.326752
51
270.1912886
0
LINE
8
left_outsideCutPath
10
59
20
15
11
59
21
3
0
LINE
8
left_outsideCutPath
10
59
20
3
11
243
21
3
0
LINE
8
left_outsideCutPath
10
243
20
3
11
243
21
15
0
LINE
8
left_outsideCutPath
10
243
20
15
11
59
21
15
0
LINE
8
left_labelLayer
10
149.5158203
20
9.9170176
11
149.5158203
21
8.0935801
0
LINE
8
left_labelLayer
10
149.5158203
20
8.0935801
11
149.321289
21
8.0935801
0
LINE
8
left_labelLayer
10
149.321289
20
8.0935801
11
149.321289
21
9.9170176
0
LINE
8
left_labelLayer
10
149.321289
20
9.9170176
11
149.5158203
21
9.9170176
0
LINE
8
left_labelLayer
10
150.943164
20
8.8236583
11
150.943164
21
8.7006114
0
LINE
8
left_labelLayer
10
150.943164
20
8.7006114
11
150.0583984
21
8.7006114
0
LINE
8
left_labelLayer
10
150.8880859
20
8.3267833
11
150.8880859
21
8.1533458
0
LINE
8
left_labelLayer
10
150.0630859
20
8.8588145
11
150.7345703
21
8.8588145
0
ARC
8
left_labelLayer
10
150.4645013
20
8.8260527
40
0.7559372
50
256.0088069
51
270.4848726
0
ARC
8
left_labelLayer
10
150.4094547
20
8.6123508
40
0.5352691
50
223.5466259
51
256.1957181
0
ARC
8
left_labelLayer
10
150.4398201
20
8.6344205
40
0.5725041
50
194.0876832
51
223.0538666
0
ARC
8
left_labelLayer
10
150.7180669
20
8.7105114
40
0.8609249
50
181.3574761
51
194.4920078
0
ARC
8
left_labelLayer
10
150.9683053
20
8.7250081
40
1.1114695
50
179.9890378
51
181.7989751
0
ARC
8
left_labelLayer
10
150.8782876
20
8.7320729
40
1.0214746
50
168.9538793
51
180.3843486
0
ARC
8
left_labelLayer
10
150.5446867
20
8.8
40
0.6810452
50
149.4071903
51
169.1853207
0
ARC
8
left_labelLayer
10
150.45173
20
8.8491149
40
0.5760531
50
140.105677
51
148.9068515
0
ARC
8
left_labelLayer
10
150.3946274
20
8.90176
40
0.4984913
50
92.4762757
51
140.5386267
0
ARC
8
left_labelLayer
10
150.4200707
20
8.7137283
40
0.6876644
50
89.9635847
51
93.9174772
0
ARC
8
left_labelLayer
10
150.4261453
20
8.8087551
40
0.5926644
50
74.2126494
51
90.5450089
0
ARC
8
left_labelLayer
10
150.4632648
20
8.9455233
40
0.4509587
50
41.2065139
51
74.023223
0
ARC
8
left_labelLayer
10
150.3929675
20
8.884686
40
0.5439244
50
11.5994423
51
41.1496512
0
ARC
8
left_labelLayer
10
150.1514261
20
8.8289814
40
0.7917559
50
359.6147853
51
12.0336864
0
ARC
8
left_labelLayer
10
150.8390171
20
8.7162087
40
0.7807745
50
181.1446569
51
190.8006863
0
ARC
8
left_labelLayer
10
150.5635702
20
8.6618824
40
0.5000297
50
190.6005027
51
206.0274505
0
ARC
8
left_labelLayer
10
150.441702
20
8.6042695
40
0.365244
50
206.2950591
51
222.5558028
0
ARC
8
left_labelLayer
10
150.4309039
20
8.5986168
40
0.353481
50
223.064608
51
258.1400473
0
ARC
8
left_labelLayer
10
150.4738913
20
8.7756247
40
0.5355753
50
257.531205
51
270.4320292
0
ARC
8
left_labelLayer
10
150.4743719
20
9.2674867
40
1.0274283
50
270.1984054
51
292.2090137
0
ARC
8
left_labelLayer
10
150.4251481
20
9.4089089
40
1.1769908
50
291.8252308
51
293.1614403
0
ARC
8
left_labelLayer
10
150.4226684
20
9.2244357
40
1.1678387
50
287.9023848
51
293.4862463
0
ARC
8
left_labelLayer
10
150.5073786
20
8.9630822
40
0.8930997
50
281.9937233
51
287.8850944
0
ARC
8
left_labelLayer
10
150.5279186
20
8.8892618
40
0.8166363
50
275.9054112
51
281.6603586
0
ARC
8
left_labelLayer
10
150.486816
20
9.2728854
40
1.2024538
50
271.9120222
51
275.9728256
0
ARC
8
left_labelLayer
10
150.4718189
20
9.6547099
40
1.5845676
50
269.9667173
51
271.99335
0
ARC
8
left_labelLayer
10
150.4144317
20
8.8550489
40
0.3834713
50
89.4423288
51
106.2088431
0
ARC
8
left_labelLayer
10
150.3913604
20
8.9391711
40
0.2962558
50
106.4656022
51
137.9177362
0
ARC
8
left_labelLayer
10
150.4575033
20
8.8810859
40
0.3842763
50
138.0994736
51
160.5866164
0
ARC
8
left_labelLayer
10
150.6275201
20
8.8185397
40
0.5654214
50
160.3353413
51
172.5315228
0
ARC
8
left_labelLayer
10
150.7949814
20
8.7917121
40
0.734965
50
172.1547311
51
174.761595
0
ARC
8
left_labelLayer
10
150.0716819
20
8.862579
40
0.6628991
50
359.674627
51
8.9224811
0
ARC
8
left_labelLayer
10
150.3085567
20
8.9011751
40
0.4229069
50
8.734127
51
23.2771752
0
ARC
8
left_labelLayer
10
150.4210024
20
8.9483759
40
0.3009629
50
23.4822856
51
39.7071941
0
ARC
8
left_labelLayer
10
150.4486262
20
8.9690473
40
0.266511
50
40.0823349
51
80.624301
0
ARC
8
left_labelLayer
10
150.4201946
20
8.8387217
40
0.3997855
50
79.6467321
51
90.2910148
0
LINE
8
left_labelLayer
10
151.8537109
20
9.3779551
11
151.8537109
21
9.2267833
0
LINE
8
left_labelLayer
10
151.8537109
20
9.2267833
11
151.5267578
21
9.2267833
0
LINE
8
left_labelLayer
10
151.5267578
20
9.2267833
11
151.5267578
21
8.0935801
0
LINE
8
left_labelLayer
10
151.5267578
20
8.0935801
11
151.3322265
21
8.0935801
0
LINE
8
left_labelLayer
10
151.3322265
20
8.0935801
11
151.3322265
21
9.2267833
0
LINE
8
left_labelLayer
10
151.3322265
20
9.2267833
11
151.102539
21
9.2267833
0
LINE
8
left_labelLayer
10
151.102539
20
9.2267833
11
151.102539
21
9.3146739
0
LINE
8
left_labelLayer
10
151.102539
20
9.3146739
11
151.3322265
21
9.3849864
0
LINE
8
left_labelLayer
10
151.3322265
20
9.3849864
11
151.3322265
21
9.4564708
0
LINE
8
left_labelLayer
10
151.9849609
20
9.8888926
11
151.9345703
21
9.7330333
0
LINE
8
left_labelLayer
10
151.5267578
20
9.4611583
11
151.5267578
21
9.3779551
0
LINE
8
left_labelLayer
10
151.5267578
20
9.3779551
11
151.8537109
21
9.3779551
0
ARC
8
left_labelLayer
10
152.1205998
20
9.4655335
40
0.7884254
50
167.5776408
51
180.6586147
0
ARC
8
left_labelLayer
10
151.7498541
20
9.551969
40
0.4077924
50
141.7434163
51
168.2321663
0
ARC
8
left_labelLayer
10
151.6894884
20
9.5834761
40
0.3411159
50
98.2550772
51
139.6204114
0
ARC
8
left_labelLayer
10
151.7424886
20
9.3386404
40
0.5912776
50
89.6695765
51
99.931461
0
ARC
8
left_labelLayer
10
151.7426391
20
9.303486
40
0.6264307
50
81.5641687
51
89.7018874
0
ARC
8
left_labelLayer
10
151.6986042
20
8.996266
40
0.9367879
50
75.9739292
51
81.6566006
0
ARC
8
left_labelLayer
10
151.6229654
20
8.6825595
40
1.2594762
50
73.2965929
51
76.0943596
0
ARC
8
left_labelLayer
10
151.642068
20
8.8348669
40
0.9445954
50
71.9613262
51
76.59203
0
ARC
8
left_labelLayer
10
151.7153392
20
9.1456984
40
0.6252462
50
76.5184967
51
83.0216858
0
ARC
8
left_labelLayer
10
151.7408709
20
9.3510223
40
0.4183418
50
83.0760612
51
89.7929372
0
ARC
8
left_labelLayer
10
151.7400297
20
9.5070197
40
0.2623523
50
89.4860917
51
103.4196111
0
ARC
8
left_labelLayer
10
151.7163765
20
9.5978958
40
0.1684788
50
102.7677349
51
144.3380944
0
ARC
8
left_labelLayer
10
151.7640294
20
9.5672359
40
0.2250886
50
145.069033
51
162.1800995
0
ARC
8
left_labelLayer
10
151.9274071
20
9.512269
40
0.3974562
50
161.8439301
51
171.7847217
0
ARC
8
left_labelLayer
10
152.1938557
20
9.4722479
40
0.6668912
50
171.6526893
51
178.438394
0
ARC
8
left_labelLayer
10
152.445366
20
9.4615296
40
0.9186082
50
178.1976236
51
180.0231636
0
LINE
8
left_labelLayer
10
152.6787109
20
8.254127
11
152.6787109
21
8.1052989
0
LINE
8
left_labelLayer
10
152.1021484
20
8.4627208
11
152.1021484
21
9.2267833
0
LINE
8
left_labelLayer
10
152.1021484
20
9.2267833
11
151.918164
21
9.2267833
0
LINE
8
left_labelLayer
10
151.918164
20
9.2267833
11
151.918164
21
9.3205333
0
LINE
8
left_labelLayer
10
151.918164
20
9.3205333
11
152.1021484
21
9.4013926
0
LINE
8
left_labelLayer
10
152.1021484
20
9.4013926
11
152.1841797
21
9.6756114
0
LINE
8
left_labelLayer
10
152.1841797
20
9.6756114
11
152.2966797
21
9.6756114
0
LINE
8
left_labelLayer
10
152.2966797
20
9.6756114
11
152.2966797
21
9.3779551
0
LINE
8
left_labelLayer
10
152.2966797
20
9.3779551
11
152.6693359
21
9.3779551
0
LINE
8
left_labelLayer
10
152.6693359
20
9.3779551
11
152.6693359
21
9.2267833
0
LINE
8
left_labelLayer
10
152.6693359
20
9.2267833
11
152.2966797
21
9.2267833
0
LINE
8
left_labelLayer
10
152.2966797
20
9.2267833
11
152.2966797
21
8.4709239
0
ARC
8
left_labelLayer
10
152.5042651
20
8.8695553
40
0.6388671
50
269.8802342
51
278.3027144
0
ARC
8
left_labelLayer
10
152.5098498
20
8.8230956
40
0.592089
50
278.4171709
51
279.0064816
0
ARC
8
left_labelLayer
10
152.4386307
20
9.2780188
40
1.0525527
50
278.9588206
51
280.5099454
0
ARC
8
left_labelLayer
10
152.5069734
20
8.9112661
40
0.6794867
50
280.4848072
51
282.6268001
0
ARC
8
left_labelLayer
10
152.566838
20
8.6452779
40
0.4068453
50
282.5885192
51
285.5787386
0
ARC
8
left_labelLayer
10
152.5969399
20
8.5345565
40
0.2921082
50
285.7238148
51
286.2562754
0
ARC
8
left_labelLayer
10
152.5969194
20
8.2782926
40
0.1913549
50
287.9893134
51
295.3048201
0
ARC
8
left_labelLayer
10
152.5507559
20
8.4179742
40
0.3384659
50
283.3073884
51
288.1192361
0
ARC
8
left_labelLayer
10
152.5020252
20
8.6212584
40
0.5475087
50
280.0068601
51
283.3734471
0
ARC
8
left_labelLayer
10
152.4692582
20
8.7991118
40
0.7283515
50
279.1871698
51
280.1141343
0
ARC
8
left_labelLayer
10
152.449388
20
8.9121249
40
0.8430888
50
275.5257978
51
279.2939761
0
ARC
8
left_labelLayer
10
152.471942
20
8.6764969
40
0.6063841
50
270.8933064
51
275.5485083
0
ARC
8
left_labelLayer
10
152.4747772
20
8.5679565
40
0.497814
50
270.0031609
51
270.7617874
0
ARC
8
left_labelLayer
10
152.4669547
20
8.5781701
40
0.5080881
50
253.7848298
51
270.8852574
0
ARC
8
left_labelLayer
10
152.4067599
20
8.3728818
40
0.2941575
50
190.3817526
51
253.8772446
0
ARC
8
left_labelLayer
10
152.7135727
20
8.4558384
40
0.611463
50
179.355094
51
192.8477427
0
ARC
8
left_labelLayer
10
152.6884081
20
8.468475
40
0.3917361
50
179.6418218
51
189.7503771
0
ARC
8
left_labelLayer
10
152.5501099
20
8.4438097
40
0.2512599
50
189.5480239
51
205.7873182
0
ARC
8
left_labelLayer
10
152.4932876
20
8.4176093
40
0.1887017
50
206.1298876
51
221.4079835
0
ARC
8
left_labelLayer
10
152.486907
20
8.4127685
40
0.1807153
50
221.5949044
51
262.3504346
0
ARC
8
left_labelLayer
10
152.5020616
20
8.4907044
40
0.2600163
50
261.326752
51
270.1912886
0
LINE
8
back_outsideCutPath
10
0
20
30
11
0
21
18
0
LINE
8
back_outsideCutPath
10
0
20
18
11
56
21
18
0
LINE
8
back_outsideCutPath
10
56
20
18
11
56
21
30
0
LINE
8
back_outsideCutPath
10
56
20
30
11
0
21
30
0
LINE
8
back_labelLayer
10
25.7066406
20
23.2652476
11
25.6925781
21
23.2652476
0
LINE
8
back_labelLayer
10
25.6925781
20
23.2652476
11
25.6515625
21
23.1000132
0
LINE
8
back_labelLayer
10
25.6515625
20
23.1000132
11
25.5121094
21
23.1000132
0
LINE
8
back_labelLayer
10
25.5121094
20
23.1000132
11
25.5121094
21
24.9234507
0
LINE
8
back_labelLayer
10
25.5121094
20
24.9234507
11
25.7066406
21
24.9234507
0
LINE
8
back_labelLayer
10
25.7066406
20
24.9234507
11
25.7066406
21
24.480482
0
LINE
8
back_labelLayer
10
25.6972656
20
24.2132945
11
25.7066406
21
24.2132945
0
ARC
8
back_labelLayer
10
26.1156007
20
23.8109495
40
0.5945611
50
74.2394336
51
90.5623134
0
ARC
8
back_labelLayer
10
26.1549155
20
23.9551805
40
0.4450758
50
38.5631555
51
74.0670615
0
ARC
8
back_labelLayer
10
26.0537443
20
23.8765136
40
0.5732249
50
16.4709296
51
38.4075897
0
ARC
8
back_labelLayer
10
25.7622737
20
23.7851179
40
0.878662
50
5.1338703
51
16.7972839
0
ARC
8
back_labelLayer
10
25.3943565
20
23.7460349
40
1.248615
50
359.8778334
51
5.4093727
0
ARC
8
back_labelLayer
10
25.5024043
20
23.7366446
40
1.1405843
50
350.6562452
51
0.3379759
0
ARC
8
back_labelLayer
10
25.9000337
20
23.6690116
40
0.7372532
50
335.8305527
51
350.8254741
0
ARC
8
back_labelLayer
10
26.0749365
20
23.5935215
40
0.5467813
50
321.3161893
51
335.543536
0
ARC
8
back_labelLayer
10
26.1418088
20
23.5390315
40
0.4605234
50
274.0640252
51
321.4080735
0
ARC
8
back_labelLayer
10
26.1106572
20
23.7363378
40
0.6597628
50
269.922571
51
275.5483342
0
ARC
8
back_labelLayer
10
26.1064851
20
23.6666232
40
0.5900566
50
255.7755733
51
270.3185514
0
ARC
8
back_labelLayer
10
26.0896503
20
23.5918213
40
0.5134155
50
245.9802874
51
255.5454843
0
ARC
8
back_labelLayer
10
26.0570316
20
23.5159646
40
0.4308514
50
215.5850395
51
245.8362043
0
ARC
8
back_labelLayer
10
21.6508792
20
24.4770476
40
4.0557629
50
358.1123707
51
0.0485172
0
ARC
8
back_labelLayer
10
22.7797242
20
24.439152
40
2.9262821
50
355.7237912
51
358.1259125
0
ARC
8
back_labelLayer
10
23.2485007
20
24.4071618
40
2.4564273
50
355.4733684
51
355.6525804
0
ARC
8
back_labelLayer
10
26.0694326
20
23.96031
40
0.4422886
50
95.1834766
51
145.1109098
0
ARC
8
back_labelLayer
10
26.1083084
20
23.7410765
40
0.664407
50
89.8743368
51
96.8144278
0
ARC
8
back_labelLayer
10
26.0775689
20
23.695944
40
0.5466626
50
89.5732391
51
100.7322559
0
ARC
8
back_labelLayer
10
26.0371009
20
23.900412
40
0.3382393
50
100.4469757
51
119.6700974
0
ARC
8
back_labelLayer
10
25.9995777
20
23.9705677
40
0.2587162
50
120.140458
51
142.4247742
0
ARC
8
back_labelLayer
10
26.0616575
20
23.9295009
40
0.3330028
50
143.3382249
51
161.2560141
0
ARC
8
back_labelLayer
10
26.321285
20
23.8373256
40
0.6084925
50
160.8927523
51
171.2333886
0
ARC
8
back_labelLayer
10
26.7546388
20
23.7674135
40
1.0474434
50
171.0666637
51
177.8458255
0
ARC
8
back_labelLayer
10
27.2056149
20
23.7444806
40
1.4989747
50
177.6178171
51
180.0423511
0
ARC
8
back_labelLayer
10
26.992825
20
23.7383484
40
1.2861942
50
179.7761857
51
185.7075849
0
ARC
8
back_labelLayer
10
26.4857564
20
23.6861019
40
0.7764449
50
185.5925612
51
194.204996
0
ARC
8
back_labelLayer
10
26.1608891
20
23.6017883
40
0.4408256
50
193.9429978
51
208.0218901
0
ARC
8
back_labelLayer
10
26.0294524
20
23.5349208
40
0.2933951
50
208.5533782
51
217.5604131
0
ARC
8
back_labelLayer
10
26.0187474
20
23.5304707
40
0.2822121
50
218.1691084
51
253.8047624
0
ARC
8
back_labelLayer
10
26.0710934
20
23.6918619
40
0.4518295
50
253.138383
51
266.8482405
0
ARC
8
back_labelLayer
10
26.0857739
20
23.8650783
40
0.6256121
50
266.3779789
51
270.0507563
0
ARC
8
back_labelLayer
10
26.0904784
20
23.6272391
40
0.3877949
50
269.3867907
51
285.863021
0
ARC
8
back_labelLayer
10
26.1192882
20
23.5231149
40
0.279762
50
286.0163203
51
326.8496463
0
ARC
8
back_labelLayer
10
25.9802363
20
23.6152323
40
0.4465561
50
326.7103825
51
343.6662034
0
ARC
8
back_labelLayer
10
25.7199378
20
23.694773
40
0.718725
50
343.4170064
51
353.6369215
0
ARC
8
back_labelLayer
10
25.3267591
20
23.7414258
40
1.1146554
50
353.4935129
51
0.2205476
0
ARC
8
back_labelLayer
10
25.2921258
20
23.7503701
40
1.1492899
50
359.7679953
51
6.3095393
0
ARC
8
back_labelLayer
10
25.7250331
20
23.8000495
40
0.7135473
50
6.1648435
51
16.0396801
0
ARC
8
back_labelLayer
10
26.0039092
20
23.882234
40
0.4228243
50
15.7780353
51
32.0151981
0
ARC
8
back_labelLayer
10
26.0908897
20
23.9320512
40
0.322686
50
32.7026963
51
35.5237107
0
ARC
8
back_labelLayer
10
26.1226812
20
23.9546434
40
0.2836845
50
35.5408554
51
79.8011725
0
ARC
8
back_labelLayer
10
26.0845849
20
23.7926836
40
0.4499173
50
78.678288
51
90.3749519
0
LINE
8
back_labelLayer
10
27.9167969
20
23.1000132
11
27.7726563
21
23.1000132
0
LINE
8
back_labelLayer
10
27.7726563
20
23.1000132
11
27.7339844
21
23.2828257
0
LINE
8
back_labelLayer
10
27.7339844
20
23.2828257
11
27.7246094
21
23.2828257
0
LINE
8
back_labelLayer
10
27.5089844
20
23.8629039
11
27.7269531
21
23.8699351
0
LINE
8
back_labelLayer
10
27.7269531
20
23.8699351
11
27.7269531
21
23.9496226
0
LINE
8
back_labelLayer
10
27.090625
20
24.1464976
11
27.0308594
21
24.2953257
0
LINE
8
back_labelLayer
10
27.9167969
20
23.9765757
11
27.9167969
21
23.1000132
0
LINE
8
back_labelLayer
10
27.7222656
20
23.6156382
11
27.7222656
21
23.7316539
0
LINE
8
back_labelLayer
10
27.7222656
20
23.7316539
11
27.5277344
21
23.7234507
0
ARC
8
back_labelLayer
10
27.0916852
20
23.7825498
40
0.8064225
50
314.7444881
51
321.7072154
0
ARC
8
back_labelLayer
10
27.289804
20
23.5812454
40
0.5239812
50
304.8486468
51
314.8530621
0
ARC
8
back_labelLayer
10
27.3849818
20
23.4457729
40
0.3584188
50
294.3932453
51
304.736968
0
ARC
8
back_labelLayer
10
27.3524694
20
23.5300162
40
0.4485995
50
281.2978422
51
293.7313713
0
ARC
8
back_labelLayer
10
27.3094838
20
23.7383467
40
0.6613157
50
272.933442
51
281.4138282
0
ARC
8
back_labelLayer
10
27.2952354
20
23.9520589
40
0.8754834
50
269.953918
51
273.1489412
0
ARC
8
back_labelLayer
10
27.2903141
20
23.6735542
40
0.5969933
50
258.6720282
51
270.4047378
0
ARC
8
back_labelLayer
10
27.248846
20
23.4751856
40
0.3943474
50
238.3273177
51
258.9184092
0
ARC
8
back_labelLayer
10
27.2202724
20
23.4230541
40
0.3349911
50
227.7688989
51
237.8048707
0
ARC
8
back_labelLayer
10
27.2113316
20
23.4105738
40
0.3197459
50
192.0827235
51
227.4520462
0
ARC
8
back_labelLayer
10
27.3761773
20
23.4512105
40
0.4894739
50
179.5457232
51
192.6949867
0
ARC
8
back_labelLayer
10
27.223037
20
23.4689334
40
0.3366029
50
115.4904367
51
182.3568193
0
ARC
8
back_labelLayer
10
27.3916099
20
23.1597386
40
0.688512
50
101.3567674
51
117.0799462
0
ARC
8
back_labelLayer
10
27.526993
20
22.5270787
40
1.3354686
50
92.4696312
51
101.7064476
0
ARC
8
back_labelLayer
10
27.5659216
20
21.9631334
40
1.9006235
50
91.7166737
51
92.9095263
0
ARC
8
back_labelLayer
10
27.1682135
20
23.9526132
40
0.5587476
50
359.6933313
51
8.0034688
0
ARC
8
back_labelLayer
10
27.3795871
20
23.9834052
40
0.3451471
50
7.8271929
51
20.6043209
0
ARC
8
back_labelLayer
10
27.4991876
20
24.0291597
40
0.217097
50
20.4093369
51
41.4479937
0
ARC
8
back_labelLayer
10
27.516858
20
24.0388722
40
0.1974722
50
42.7295952
51
71.0379899
0
ARC
8
back_labelLayer
10
27.4752525
20
23.9257415
40
0.3179937
50
70.5718618
51
83.9928516
0
ARC
8
back_labelLayer
10
27.4553786
20
23.7642966
40
0.4806406
50
83.650829
51
90.1755115
0
ARC
8
back_labelLayer
10
27.4588626
20
23.611609
40
0.6333455
50
90.4483853
51
103.766598
0
ARC
8
back_labelLayer
10
27.533352
20
23.297492
40
0.9561679
50
103.6227814
51
112.4318312
0
ARC
8
back_labelLayer
10
27.6609398
20
22.9753294
40
1.3026489
50
112.2119849
51
115.9643375
0
ARC
8
back_labelLayer
10
27.4565617
20
23.5058643
40
0.8969235
50
106.3568298
51
118.3349323
0
ARC
8
back_labelLayer
10
27.4947508
20
23.3879226
40
1.0208524
50
104.5163864
51
106.5492813
0
ARC
8
back_labelLayer
10
27.4667483
20
23.5045841
40
0.9008986
50
90.0714424
51
104.6520716
0
ARC
8
back_labelLayer
10
27.4702827
20
23.5838864
40
0.8216087
50
81.5680502
51
90.3248105
0
ARC
8
back_labelLayer
10
27.5177883
20
23.893374
40
0.5085032
50
68.2274079
51
81.749516
0
ARC
8
back_labelLayer
10
27.5839528
20
24.0579974
40
0.3310815
50
47.8682677
51
68.2934916
0
ARC
8
back_labelLayer
10
27.5946922
20
24.0794384
40
0.3080432
50
19.2330204
51
46.6742455
0
ARC
8
back_labelLayer
10
27.4158002
20
24.012891
40
0.4988873
50
6.3378401
51
19.6814104
0
ARC
8
back_labelLayer
10
27.1513371
20
23.9792103
40
0.7654643
50
359.8027963
51
6.6582429
0
ARC
8
back_labelLayer
10
27.3371358
20
23.7727196
40
0.5356114
50
269.5793043
51
282.0412181
0
ARC
8
back_labelLayer
10
27.3762046
20
23.5994191
40
0.3579794
50
281.7121398
51
306.4593899
0
ARC
8
back_labelLayer
10
27.3935017
20
23.5709595
40
0.3248251
50
306.9886651
51
313.8556244
0
ARC
8
back_labelLayer
10
27.3914685
20
23.5703383
40
0.3257914
50
314.1891558
51
347.4270532
0
ARC
8
back_labelLayer
10
27.2282702
20
23.6112357
40
0.4939983
50
346.9177252
51
0.2824351
0
ARC
8
back_labelLayer
10
27.1181445
20
23.615637
40
0.6041212
50
359.8135211
51
0.0001136
0
ARC
8
back_labelLayer
10
27.5740051
20
22.2958719
40
1.4283285
50
91.8564242
51
96.4478991
0
ARC
8
back_labelLayer
10
27.5096009
20
22.8531892
40
0.8673051
50
96.3547336
51
102.9951389
0
ARC
8
back_labelLayer
10
27.4221573
20
23.2247294
40
0.48562
50
102.7996962
51
113.2432421
0
ARC
8
back_labelLayer
10
27.3500587
20
23.3971561
40
0.2987406
50
113.5882489
51
121.6808338
0
ARC
8
back_labelLayer
10
27.2999916
20
23.4734032
40
0.2075765
50
120.9735032
51
172.4179222
0
ARC
8
back_labelLayer
10
27.3978856
20
23.4538513
40
0.3072625
50
171.2124388
51
180.2058081
0
ARC
8
back_labelLayer
10
27.3686218
20
23.4504498
40
0.2780063
50
179.5264351
51
192.7786341
0
ARC
8
back_labelLayer
10
27.2745788
20
23.427654
40
0.181256
50
192.3264806
51
222.0578816
0
ARC
8
back_labelLayer
10
27.2675902
20
23.4234795
40
0.1732779
50
222.581045
51
229.2547759
0
ARC
8
back_labelLayer
10
27.2912199
20
23.4539025
40
0.2117591
50
229.7836469
51
254.2726117
0
ARC
8
back_labelLayer
10
27.3227039
20
23.5588169
40
0.3212854
50
253.9396346
51
266.4534089
0
ARC
8
back_labelLayer
10
27.3327497
20
23.6745771
40
0.4374546
50
266.0780844
51
270.0593932
0
LINE
8
back_labelLayer
10
29.1742188
20
24.3410289
11
29.1144531
21
24.1757945
0
LINE
8
back_labelLayer
10
29.1554688
20
23.3156382
11
29.1554688
21
23.1433726
0
ARC
8
back_labelLayer
10
28.8246546
20
23.8035894
40
0.7270401
50
256.4243547
51
270.4889854
0
ARC
8
back_labelLayer
10
28.7665575
20
23.5768416
40
0.4930011
50
221.7976418
51
256.8020265
0
ARC
8
back_labelLayer
10
28.8228188
20
23.6184107
40
0.5626877
50
196.0167027
51
221.1349127
0
ARC
8
back_labelLayer
10
29.1055729
20
23.7048351
40
0.8583265
50
183.5913074
51
196.3539865
0
ARC
8
back_labelLayer
10
29.4224104
20
23.7327451
40
1.1763174
50
179.9389907
51
183.9813976
0
ARC
8
back_labelLayer
10
29.3194126
20
23.7409081
40
1.0733411
50
169.897784
51
180.3688922
0
ARC
8
back_labelLayer
10
28.9457663
20
23.8100273
40
0.6933685
50
153.087542
51
170.1050482
0
ARC
8
back_labelLayer
10
28.8039877
20
23.8777729
40
0.5362943
50
138.6549811
51
152.6853604
0
ARC
8
back_labelLayer
10
28.7775288
20
23.8970541
40
0.5037024
50
101.4913465
51
138.313365
0
ARC
8
back_labelLayer
10
28.8382758
20
23.6442267
40
0.7636187
50
89.5892584
51
102.1787371
0
ARC
8
back_labelLayer
10
28.8429471
20
23.5299669
40
0.8778592
50
77.7702352
51
89.947599
0
ARC
8
back_labelLayer
10
28.8263601
20
23.4384148
40
0.9708524
50
74.6795197
51
77.9580891
0
ARC
8
back_labelLayer
10
28.9160719
20
23.7634194
40
0.6336943
50
70.0946687
51
74.7384453
0
ARC
8
back_labelLayer
10
29.001454
20
23.9974139
40
0.3846103
50
63.5034573
51
70.1860874
0
ARC
8
back_labelLayer
10
29.0377538
20
24.0740358
40
0.2998465
50
62.9276047
51
63.1790899
0
ARC
8
back_labelLayer
10
28.7948912
20
23.3715672
40
0.8653909
50
68.3294632
51
74.8832037
0
ARC
8
back_labelLayer
10
28.749178
20
23.2094546
40
1.033817
50
74.7804298
51
77.4494028
0
ARC
8
back_labelLayer
10
28.7971761
20
23.4347244
40
0.8035027
50
77.299634
51
81.734592
0
ARC
8
back_labelLayer
10
28.8321235
20
23.6782395
40
0.5574931
50
81.6911135
51
87.5076165
0
ARC
8
back_labelLayer
10
28.838868
20
23.8041524
40
0.4314078
50
87.6753101
51
89.9741725
0
ARC
8
back_labelLayer
10
28.8294195
20
23.8041686
40
0.4314993
50
88.7194681
51
112.5668051
0
ARC
8
back_labelLayer
10
28.7987585
20
23.9055417
40
0.3262936
50
114.4266234
51
161.6632657
0
ARC
8
back_labelLayer
10
29.103348
20
23.7863229
40
0.653154
50
160.1418949
51
175.1367695
0
ARC
8
back_labelLayer
10
29.5225659
20
23.7392464
40
1.0749138
50
174.5308775
51
180.1548472
0
ARC
8
back_labelLayer
10
29.3897655
20
23.7314778
40
0.9421218
50
179.704218
51
188.0743289
0
ARC
8
back_labelLayer
10
29.0504125
20
23.681827
40
0.599161
50
187.9314755
51
200.3885643
0
ARC
8
back_labelLayer
10
28.866935
20
23.6138579
40
0.4034987
50
200.4183551
51
216.6392406
0
ARC
8
back_labelLayer
10
28.7900144
20
23.5588698
40
0.3089666
50
216.9695817
51
261.3102474
0
ARC
8
back_labelLayer
10
28.8239594
20
23.7171263
40
0.4706338
50
260.1359368
51
270.269355
0
ARC
8
back_labelLayer
10
28.8223926
20
24.0608251
40
0.8143362
50
270.2659034
51
286.2891044
0
ARC
8
back_labelLayer
10
28.7728866
20
24.2454498
40
1.0054446
50
286.0460329
51
292.3653071
0
ARC
8
back_labelLayer
10
28.9047278
20
23.6366391
40
0.5533379
50
282.0344392
51
296.9454826
0
ARC
8
back_labelLayer
10
28.8478198
20
23.8931022
40
0.8160328
50
272.5980818
51
282.1878441
0
ARC
8
back_labelLayer
10
28.8314978
20
24.1435035
40
1.066928
50
269.9657159
51
272.8641557
0
LINE
8
back_labelLayer
10
29.6429688
20
23.7574351
11
29.6523438
21
23.7574351
0
LINE
8
back_labelLayer
10
29.8058594
20
23.9449351
11
30.2207031
21
24.3843882
0
LINE
8
back_labelLayer
10
30.2207031
20
24.3843882
11
30.4515625
21
24.3843882
0
LINE
8
back_labelLayer
10
30.4515625
20
24.3843882
11
29.93125
21
23.8371226
0
LINE
8
back_labelLayer
10
29.93125
20
23.8371226
11
30.4878906
21
23.1000132
0
LINE
8
back_labelLayer
10
30.4878906
20
23.1000132
11
30.2523438
21
23.1000132
0
LINE
8
back_labelLayer
10
30.2523438
20
23.1000132
11
29.7988281
21
23.7070445
0
LINE
8
back_labelLayer
10
29.7988281
20
23.7070445
11
29.6523438
21
23.580482
0
LINE
8
back_labelLayer
10
29.6523438
20
23.580482
11
29.6523438
21
23.1000132
0
LINE
8
back_labelLayer
10
29.6523438
20
23.1000132
11
29.4601563
21
23.1000132
0
LINE
8
back_labelLayer
10
29.4601563
20
23.1000132
11
29.4601563
21
24.9234507
0
LINE
8
back_labelLayer
10
29.4601563
20
24.9234507
11
29.6523438
21
24.9234507
0
LINE
8
back_labelLayer
10
29.6523438
20
24.9234507
11
29.6523438
21
23.9566539
0
ARC
8
back_labelLayer
10
30.592221
20
23.0921496
40
1.1515095
50
142.3231606
51
144.7075001
0
ARC
8
back_labelLayer
10
31.2052172
20
22.6193519
40
1.9256554
50
140.4330324
51
142.33691
0
ARC
8
back_labelLayer
10
32.0043391
20
21.9615384
40
2.9606974
50
139.2797169
51
140.4703581
0
ARC
8
back_labelLayer
10
32.9280469
20
21.1672307
40
4.1789587
50
138.3415935
51
139.2877741
0
ARC
8
back_labelLayer
10
28.3562181
20
23.9590717
40
1.2961279
50
358.274008
51
359.8931173
0
ARC
8
back_labelLayer
10
27.3476392
20
23.9871735
40
2.3050966
50
357.5042913
51
358.3309042
0
ARC
8
back_labelLayer
10
25.8349482
20
24.054016
40
3.8192634
50
356.632844
51
357.4906462
0
ARC
8
back_labelLayer
10
23.3298204
20
24.2001217
40
6.3286481
50
356.0330377
51
356.6444597
0
ARC
8
back_labelLayer
10
22.1861917
20
24.2763383
40
7.47481
50
356.0193107
51
356.0566743
0
LINE
8
right_outsideCutPath
10
59
20
30
11
59
21
18
0
LINE
8
right_outsideCutPath
10
59
20
18
11
243
21
18
0
LINE
8
right_outsideCutPath
10
243
20
18
11
243
21
30
0
LINE
8
right_outsideCutPath
10
243
20
30
11
59
21
30
0
LINE
8
right_labelLayer
10
149.2568359
20
24.6703196
11
149.2298828
21
24.4898509
0
LINE
8
right_labelLayer
10
148.711914
20
24.0656321
11
148.711914
21
23.3765696
0
LINE
8
right_labelLayer
10
148.711914
20
23.3765696
11
148.5173828
21
23.3765696
0
LINE
8
right_labelLayer
10
148.5173828
20
23.3765696
11
148.5173828
21
24.6609446
0
LINE
8
right_labelLayer
10
148.5173828
20
24.6609446
11
148.6779297
21
24.6609446
0
LINE
8
right_labelLayer
10
148.6779297
20
24.6609446
11
148.7001953
21
24.423054
0
LINE
8
right_labelLayer
10
148.7001953
20
24.423054
11
148.7095703
21
24.423054
0
ARC
8
right_labelLayer
10
149.1053192
20
23.7913668
40
0.8930176
50
84.9921779
51
90.1282471
0
ARC
8
right_labelLayer
10
149.1267639
20
24.0316199
40
0.6518097
50
78.4890565
51
85.0265308
0
ARC
8
right_labelLayer
10
149.0435015
20
23.6529022
40
0.8574503
50
77.4455743
51
81.6357447
0
ARC
8
right_labelLayer
10
149.0808784
20
23.9105245
40
0.5971314
50
81.5881674
51
87.191865
0
ARC
8
right_labelLayer
10
149.0889824
20
24.05098
40
0.4564491
50
87.3441447
51
89.9654358
0
ARC
8
right_labelLayer
10
149.0871016
20
24.170371
40
0.3370649
50
89.6334865
51
137.088065
0
ARC
8
right_labelLayer
10
149.1699074
20
24.0772725
40
0.4612512
50
135.6214916
51
138.8375246
0
ARC
8
right_labelLayer
10
149.1577038
20
24.0891788
40
0.4442281
50
138.9576303
51
174.5421695
0
ARC
8
right_labelLayer
10
149.3023798
20
24.0665435
40
0.5904663
50
173.6909434
51
180.0884391
0
ARC
8
right_labelLayer
10
149.2819242
20
24.1005927
40
0.6569402
50
139.4139811
51
150.6033089
0
ARC
8
right_labelLayer
10
149.1641315
20
24.2015274
40
0.5018177
50
124.2320422
51
139.4160557
0
ARC
8
right_labelLayer
10
149.1011523
20
24.2965958
40
0.3877924
50
89.6796778
51
124.4405592
0
LINE
8
right_labelLayer
10
149.6916015
20
24.6609446
11
149.6916015
21
23.3765696
0
LINE
8
right_labelLayer
10
149.6916015
20
23.3765696
11
149.4970703
21
23.3765696
0
LINE
8
right_labelLayer
10
149.4970703
20
23.3765696
11
149.4970703
21
24.6609446
0
LINE
8
right_labelLayer
10
149.4970703
20
24.6609446
11
149.6916015
21
24.6609446
0
ARC
8
right_labelLayer
10
149.6962333
20
25.0103251
40
0.2155734
50
170.8455817
51
180.3544547
0
ARC
8
right_labelLayer
10
149.615526
20
25.0238186
40
0.1337481
50
155.9681036
51
171.0517983
0
ARC
8
right_labelLayer
10
149.5764419
20
25.041157
40
0.0909907
50
133.7885024
51
155.9169224
0
ARC
8
right_labelLayer
10
149.5908698
20
25.025205
40
0.1124922
50
92.6445581
51
133.4710767
0
ARC
8
right_labelLayer
10
149.5954251
20
24.9894393
40
0.1484584
50
89.9681016
51
93.7639375
0
ARC
8
right_labelLayer
10
149.5972837
20
25.0232956
40
0.1146159
50
46.3709406
51
90.8878247
0
ARC
8
right_labelLayer
10
149.6086904
20
25.0350721
40
0.0982214
50
17.7252364
51
46.4472182
0
ARC
8
right_labelLayer
10
149.5555037
20
25.0167554
40
0.154465
50
4.9426898
51
18.1905233
0
ARC
8
right_labelLayer
10
149.4877772
20
25.009437
40
0.2225747
50
359.8853058
51
5.3174628
0
ARC
8
right_labelLayer
10
149.5090765
20
25.0076258
40
0.2012797
50
349.8345895
51
0.3887688
0
ARC
8
right_labelLayer
10
149.5823632
20
24.9939538
40
0.1267316
50
332.6320345
51
350.0710296
0
ARC
8
right_labelLayer
10
149.6108795
20
24.9798719
40
0.0949354
50
313.615333
51
332.2678948
0
ARC
8
right_labelLayer
10
149.5971345
20
24.9923867
40
0.1134851
50
269.1786858
51
314.2809324
0
ARC
8
right_labelLayer
10
149.594218
20
25.0024736
40
0.123567
50
250.4998229
51
270.5980863
0
ARC
8
right_labelLayer
10
149.5904786
20
24.9884922
40
0.1091452
50
225.1299678
51
249.9001563
0
ARC
8
right_labelLayer
10
149.5846236
20
24.9820244
40
0.1004316
50
197.7930999
51
224.8940716
0
ARC
8
right_labelLayer
10
149.639422
20
25.000804
40
0.1583518
50
184.992517
51
198.2041183
0
ARC
8
right_labelLayer
10
149.7103865
20
25.0085146
40
0.2297229
50
179.8810553
51
185.3680441
0
LINE
8
right_labelLayer
10
150.7111328
20
24.6609446
11
151.1552734
21
24.6609446
0
LINE
8
right_labelLayer
10
151.1552734
20
24.6609446
11
151.1552734
21
24.5378977
0
LINE
8
right_labelLayer
10
151.1552734
20
24.5378977
11
150.9173828
21
24.5097727
0
LINE
8
right_labelLayer
10
150.4791015
20
23.5804759
11
150.7064453
21
23.5804759
0
LINE
8
right_labelLayer
10
150.6443359
20
23.4058665
11
150.4111328
21
23.4058665
0
ARC
8
right_labelLayer
10
150.6694864
20
24.3135907
40
0.3161329
50
29.458261
51
38.3576472
0
ARC
8
right_labelLayer
10
150.5402916
20
24.2398372
40
0.4648964
50
23.1846921
51
29.5422658
0
ARC
8
right_labelLayer
10
150.4171815
20
24.1852422
40
0.5995605
50
21.2500405
51
23.3488574
0
ARC
8
right_labelLayer
10
150.6265534
20
24.2685046
40
0.3742509
50
6.8505065
51
20.9872221
0
ARC
8
right_labelLayer
10
150.521165
20
24.2542136
40
0.4805942
50
359.8710666
51
7.0434397
0
ARC
8
right_labelLayer
10
150.5558323
20
24.2484946
40
0.4459496
50
342.5648868
51
0.5958438
0
ARC
8
right_labelLayer
10
150.6380758
20
24.2257836
40
0.3606921
50
310.6097308
51
342.0923485
0
ARC
8
right_labelLayer
10
150.5919537
20
24.2794322
40
0.4314411
50
284.931601
51
310.6222227
0
ARC
8
right_labelLayer
10
150.5342384
20
24.481671
40
0.6417329
50
272.5335346
51
285.2580629
0
ARC
8
right_labelLayer
10
150.5193958
20
24.6844564
40
0.8449964
50
269.9694559
51
272.9311671
0
ARC
8
right_labelLayer
10
150.517558
20
24.4646325
40
0.6251738
50
263.4834771
51
270.1271413
0
ARC
8
right_labelLayer
10
150.5073584
20
24.3678108
40
0.5278209
50
259.495816
51
263.3907108
0
ARC
8
right_labelLayer
10
150.5704031
20
23.5414861
40
0.3461654
50
117.3934915
51
128.4093636
0
ARC
8
right_labelLayer
10
150.4812888
20
23.6520416
40
0.2041736
50
128.0883847
51
147.1398255
0
ARC
8
right_labelLayer
10
150.4332756
20
23.6842631
40
0.1463631
50
147.5369244
51
180.2592235
0
ARC
8
right_labelLayer
10
150.3877278
20
23.6823542
40
0.1008214
50
179.2915209
51
198.3580519
0
ARC
8
right_labelLayer
10
150.3688524
20
23.6773939
40
0.0813537
50
199.229311
51
239.5691411
0
ARC
8
right_labelLayer
10
150.3844618
20
23.6989479
40
0.1078746
50
238.2188695
51
239.8458956
0
ARC
8
right_labelLayer
10
150.3969875
20
23.7246989
40
0.1364491
50
240.7297443
51
254.5031504
0
ARC
8
right_labelLayer
10
150.4342354
20
23.8530487
40
0.2700896
50
254.1636002
51
262.2121868
0
ARC
8
right_labelLayer
10
150.4637333
20
24.059085
40
0.4782244
50
262.0555997
51
267.2085006
0
ARC
8
right_labelLayer
10
150.477983
20
24.3202891
40
0.7398142
50
267.0914244
51
270.0866255
0
ARC
8
right_labelLayer
10
150.7106976
20
22.7841984
40
0.7962888
50
81.5743171
51
90.305971
0
ARC
8
right_labelLayer
10
150.7543769
20
23.0690555
40
0.5081083
50
68.367089
51
81.7399339
0
ARC
8
right_labelLayer
10
150.8114233
20
23.2148455
40
0.3515573
50
52.1880532
51
68.2500089
0
ARC
8
right_labelLayer
10
150.8513441
20
23.2686361
40
0.2845905
50
8.6201447
51
51.8983333
0
ARC
8
right_labelLayer
10
150.7114385
20
23.2390323
40
0.4274331
50
359.7431962
51
9.7327972
0
ARC
8
right_labelLayer
10
150.7177022
20
23.2318226
40
0.4211982
50
340.5269256
51
0.7201556
0
ARC
8
right_labelLayer
10
150.7795866
20
23.2164145
40
0.3577692
50
302.9904244
51
339.5494515
0
ARC
8
right_labelLayer
10
150.7148603
20
23.2986281
40
0.4620684
50
303.1853919
51
304.1715612
0
ARC
8
right_labelLayer
10
150.6540787
20
23.4037948
40
0.5833901
50
286.2543356
51
302.5278855
0
ARC
8
right_labelLayer
10
150.5439036
20
23.7672074
40
0.9631233
50
276.494025
51
286.4953564
0
ARC
8
right_labelLayer
10
150.475161
20
24.3418491
40
1.5418563
50
269.7545081
51
276.6170199
0
ARC
8
right_labelLayer
10
150.4634207
20
23.8899112
40
1.0899162
50
262.5635338
51
270.2698903
0
ARC
8
right_labelLayer
10
150.4100363
20
23.4942293
40
0.6906551
50
251.2101397
51
262.7065143
0
ARC
8
right_labelLayer
10
150.3331013
20
23.2684127
40
0.4520924
50
235.9669228
51
251.2227826
0
ARC
8
right_labelLayer
10
150.251549
20
23.1520671
40
0.3100424
50
208.9037037
51
236.4230626
0
ARC
8
right_labelLayer
10
150.2590333
20
23.1489273
40
0.3151412
50
182.2079521
51
207.7461958
0
ARC
8
right_labelLayer
10
150.3542147
20
23.1584425
40
0.4106601
50
179.9779044
51
183.0229412
0
ARC
8
right_labelLayer
10
150.2409564
20
23.1638194
40
0.2974475
50
138.3915995
51
181.0052762
0
ARC
8
right_labelLayer
10
150.2723675
20
23.1355907
40
0.3396786
50
113.8121647
51
138.3496734
0
ARC
8
right_labelLayer
10
150.3319491
20
23.0069271
40
0.4814517
50
102.2869672
51
114.117186
0
ARC
8
right_labelLayer
10
150.313229
20
23.661067
40
0.2018997
50
216.5862668
51
245.4967486
0
ARC
8
right_labelLayer
10
150.3419478
20
23.6854531
40
0.2395073
50
215.4644608
51
217.1756634
0
ARC
8
right_labelLayer
10
150.2939896
20
23.6508143
40
0.1803496
50
182.1767446
51
215.341455
0
ARC
8
right_labelLayer
10
150.3368118
20
23.6554124
40
0.2233353
50
179.9837127
51
182.9382588
0
ARC
8
right_labelLayer
10
150.3359274
20
23.6573562
40
0.2224588
50
161.7226657
51
180.4843048
0
ARC
8
right_labelLayer
10
150.3114671
20
23.6640312
40
0.1971436
50
144.4965244
51
161.3352859
0
ARC
8
right_labelLayer
10
150.3766644
20
23.6154403
40
0.2784437
50
132.7258641
51
144.1480511
0
ARC
8
right_labelLayer
10
150.481168
20
23.5038422
40
0.4313307
50
125.2213241
51
132.8654594
0
ARC
8
right_labelLayer
10
150.5862112
20
23.3579775
40
0.6110765
50
121.2352113
51
125.3795488
0
ARC
8
right_labelLayer
10
150.3999797
20
24.1954868
40
0.3410274
50
215.1639998
51
247.4748571
0
ARC
8
right_labelLayer
10
150.4636715
20
24.2468826
40
0.4227294
50
212.4712662
51
215.8871206
0
ARC
8
right_labelLayer
10
150.446899
20
24.234887
40
0.4021406
50
183.0160822
51
212.3123407
0
ARC
8
right_labelLayer
10
150.5351587
20
24.2447261
40
0.490823
50
179.9763183
51
183.6209689
0
ARC
8
right_labelLayer
10
150.6063522
20
24.2496761
40
0.5620364
50
166.8196429
51
180.4839371
0
ARC
8
right_labelLayer
10
150.4199006
20
24.2967501
40
0.3697775
50
132.3287419
51
167.334048
0
ARC
8
right_labelLayer
10
150.4448454
20
24.2608945
40
0.4131223
50
106.2189374
51
131.5377674
0
ARC
8
right_labelLayer
10
150.5079603
20
24.0565295
40
0.6269922
50
93.6330555
51
106.5407929
0
ARC
8
right_labelLayer
10
150.5285657
20
23.8251844
40
0.8591984
50
89.9382157
51
94.0268017
0
ARC
8
right_labelLayer
10
150.5318992
20
23.9387263
40
0.7456598
50
82.5853299
51
90.1849555
0
ARC
8
right_labelLayer
10
150.5546809
20
24.1150098
40
0.5679102
50
74.0089645
51
82.5693815
0
ARC
8
right_labelLayer
10
150.3264108
20
23.1582876
40
0.1953742
50
179.2207598
51
200.9355757
0
ARC
8
right_labelLayer
10
150.3031768
20
23.1529071
40
0.1717828
50
202.0285364
51
236.1457291
0
ARC
8
right_labelLayer
10
150.3381517
20
23.1973021
40
0.2281755
50
235.062548
51
238.5044018
0
ARC
8
right_labelLayer
10
150.3788997
20
23.2700747
40
0.3115324
50
239.1065112
51
254.4863898
0
ARC
8
right_labelLayer
10
150.4331805
20
23.4572382
40
0.5064003
50
254.2325949
51
263.4935828
0
ARC
8
right_labelLayer
10
150.4672692
20
23.7459633
40
0.7971294
50
263.410752
51
270.14583
0
ARC
8
right_labelLayer
10
150.4704979
20
23.5886588
40
0.6398234
50
269.892555
51
270.035866
0
ARC
8
right_labelLayer
10
150.4755605
20
24.2565565
40
1.3077296
50
269.795738
51
275.3991455
0
ARC
8
right_labelLayer
10
150.5245032
20
23.7541174
40
0.8029158
50
275.2957244
51
283.3514785
0
ARC
8
right_labelLayer
10
150.6042465
20
23.4256641
40
0.4649284
50
283.1370161
51
295.8572653
0
ARC
8
right_labelLayer
10
150.6633179
20
23.2966939
40
0.3231223
50
296.4052804
51
301.8009636
0
ARC
8
right_labelLayer
10
150.6864982
20
23.264742
40
0.283766
50
301.2229173
51
318.6236661
0
ARC
8
right_labelLayer
10
150.7387468
20
23.2164769
40
0.2126626
50
319.0765328
51
1.1406296
0
ARC
8
right_labelLayer
10
150.6881685
20
23.2227943
40
0.263207
50
359.5463242
51
10.9901964
0
ARC
8
right_labelLayer
10
150.7898419
20
23.2434729
40
0.1594586
50
10.6609857
51
30.936099
0
ARC
8
right_labelLayer
10
150.8220767
20
23.2613617
40
0.1226194
50
31.5096432
51
58.0776977
0
ARC
8
right_labelLayer
10
150.7918668
20
23.2072684
40
0.1845297
50
58.9973258
51
73.8587729
0
ARC
8
right_labelLayer
10
150.7308036
20
23.0073656
40
0.3935403
50
73.4100694
51
81.5908135
0
ARC
8
right_labelLayer
10
150.6790574
20
22.6724812
40
0.7323952
50
81.4174638
51
86.5754415
0
ARC
8
right_labelLayer
10
150.6473616
20
22.1681528
40
1.2377173
50
86.50538
51
90.1400635
0
ARC
8
right_labelLayer
10
150.4083516
20
22.9587015
40
0.4471737
50
89.6436532
51
100.0209782
0
ARC
8
right_labelLayer
10
150.3802473
20
23.1115896
40
0.2917297
50
99.810484
51
116.8227657
0
ARC
8
right_labelLayer
10
150.3528724
20
23.1693241
40
0.2278605
50
117.2306729
51
130.5020327
0
ARC
8
right_labelLayer
10
150.3388098
20
23.1873983
40
0.2049864
50
130.7943435
51
169.0413794
0
ARC
8
right_labelLayer
10
150.4423249
20
23.1630192
40
0.3112774
50
168.2579178
51
180.381873
0
ARC
8
right_labelLayer
10
150.6162335
20
24.2467121
40
0.3797212
50
179.5617569
51
191.6528667
0
ARC
8
right_labelLayer
10
150.4842109
20
24.2181891
40
0.2446618
50
191.35569
51
213.3659357
0
ARC
8
right_labelLayer
10
150.4525098
20
24.199887
40
0.2081311
50
213.9577173
51
227.7968267
0
ARC
8
right_labelLayer
10
150.4800871
20
24.233336
40
0.2514427
50
228.2620098
51
254.7341076
0
ARC
8
right_labelLayer
10
150.5153271
20
24.3541374
40
0.3772665
50
254.4015504
51
267.4349849
0
ARC
8
right_labelLayer
10
150.5245223
20
24.4775195
40
0.5009498
50
267.0158878
51
270.0322973
0
ARC
8
right_labelLayer
10
150.5305325
20
24.4003258
40
0.4237949
50
269.2255902
51
284.3772723
0
ARC
8
right_labelLayer
10
150.5882947
20
24.1990809
40
0.2145933
50
282.7796505
51
346.4828679
0
ARC
8
right_labelLayer
10
150.4156051
20
24.2479975
40
0.3939987
50
345.4360947
51
0.746702
0
ARC
8
right_labelLayer
10
150.3913187
20
24.259113
40
0.4182944
50
359.1807405
51
15.0430818
0
ARC
8
right_labelLayer
10
150.5808582
20
24.3144029
40
0.22094
50
13.9535637
51
77.6673835
0
ARC
8
right_labelLayer
10
150.5264789
20
24.1195313
40
0.4230858
50
76.109484
51
90.7028436
0
ARC
8
right_labelLayer
10
150.5183391
20
24.134417
40
0.4081789
50
89.585915
51
101.3334622
0
ARC
8
right_labelLayer
10
150.4891695
20
24.2735419
40
0.2660375
50
101.0620642
51
121.9738709
0
ARC
8
right_labelLayer
10
150.4686676
20
24.3104227
40
0.2239058
50
122.5209822
51
134.9966705
0
ARC
8
right_labelLayer
10
150.4771108
20
24.3053637
40
0.2334653
50
135.5840912
51
163.0015341
0
ARC
8
right_labelLayer
10
150.6003937
20
24.2649557
40
0.3631849
50
162.5911342
51
175.7343403
0
ARC
8
right_labelLayer
10
150.7482605
20
24.2503904
40
0.5117375
50
175.3395065
51
180.0866491
0
LINE
8
right_labelLayer
10
152.4923828
20
23.3765696
11
152.2978515
21
23.3765696
0
LINE
8
right_labelLayer
10
152.2978515
20
23.3765696
11
152.2978515
21
24.207429
0
LINE
8
right_labelLayer
10
151.6134765
20
24.048054
11
151.6134765
21
23.3765696
0
LINE
8
right_labelLayer
10
151.6134765
20
23.3765696
11
151.4189453
21
23.3765696
0
LINE
8
right_labelLayer
10
151.4189453
20
23.3765696
11
151.4189453
21
25.2000071
0
LINE
8
right_labelLayer
10
151.4189453
20
25.2000071
11
151.6134765
21
25.2000071
0
LINE
8
right_labelLayer
10
151.6134765
20
25.2000071
11
151.6134765
21
24.648054
0
LINE
8
right_labelLayer
10
151.6041015
20
24.4828196
11
151.6158203
21
24.4828196
0
LINE
8
right_labelLayer
10
152.4923828
20
24.2144602
11
152.4923828
21
23.3765696
0
ARC
8
right_labelLayer
10
151.7479812
20
24.2105837
40
0.5498794
50
359.6712825
51
8.6877852
0
ARC
8
right_labelLayer
10
151.951775
20
24.2429046
40
0.3435437
50
8.4931661
51
22.6580205
0
ARC
8
right_labelLayer
10
152.0553229
20
24.285936
40
0.2314108
50
22.7024566
51
42.3420575
0
ARC
8
right_labelLayer
10
152.0669607
20
24.2911709
40
0.2193188
50
43.3790936
51
71.5385292
0
ARC
8
right_labelLayer
10
152.023435
20
24.1695461
40
0.3484785
50
71.0828991
51
84.3689751
0
ARC
8
right_labelLayer
10
152.0038988
20
24.0034452
40
0.5157043
50
84.0196878
51
90.1510721
0
ARC
8
right_labelLayer
10
151.9983476
20
23.9304802
40
0.5886825
50
89.5920434
51
100.3595623
0
ARC
8
right_labelLayer
10
151.9566648
20
24.1495317
40
0.3657099
50
100.1069574
51
118.0846095
0
ARC
8
right_labelLayer
10
151.9142676
20
24.2327278
40
0.2723561
50
118.4551922
51
139.6706096
0
ARC
8
right_labelLayer
10
151.9568305
20
24.2036354
40
0.323676
50
140.6208129
51
160.5048197
0
ARC
8
right_labelLayer
10
152.181189
20
24.1205802
40
0.5629
50
160.1568141
51
171.5312489
0
ARC
8
right_labelLayer
10
152.5441668
20
24.0630688
40
0.930396
50
171.3201067
51
178.3407187
0
ARC
8
right_labelLayer
10
152.8689642
20
24.0485629
40
1.2554876
50
178.1082004
51
180.0232233
0
ARC
8
right_labelLayer
10
149.863539
20
24.6459631
40
1.7499387
50
357.8675633
51
0.0684592
0
ARC
8
right_labelLayer
10
150.4581962
20
24.6232772
40
1.1548492
50
354.9825517
51
357.8945204
0
ARC
8
right_labelLayer
10
150.8505835
20
24.5891018
40
0.7609766
50
351.9715122
51
354.9619688
0
ARC
8
right_labelLayer
10
151.9453226
20
24.2767049
40
0.388658
50
119.8315708
51
147.9726466
0
ARC
8
right_labelLayer
10
151.9923848
20
24.2044113
40
0.4748081
50
116.6659221
51
120.4184612
0
ARC
8
right_labelLayer
10
152.0011727
20
24.1813246
40
0.4993894
50
96.6651882
51
116.3781904
0
ARC
8
right_labelLayer
10
152.0201055
20
24.050721
40
0.6313185
50
89.8925864
51
96.9960918
0
ARC
8
right_labelLayer
10
152.0261614
20
23.8928199
40
0.7892335
50
80.6862105
51
90.3537171
0
ARC
8
right_labelLayer
10
152.0753041
20
24.1818629
40
0.4960508
50
65.6023591
51
80.8843845
0
ARC
8
right_labelLayer
10
152.134317
20
24.3147754
40
0.3506328
50
46.7399881
51
65.4130233
0
ARC
8
right_labelLayer
10
152.1383293
20
24.3274395
40
0.3387095
50
19.2203106
51
45.7661174
0
ARC
8
right_labelLayer
10
151.9430198
20
24.2550367
40
0.5469829
50
6.473423
51
19.6467396
0
ARC
8
right_labelLayer
10
151.6511969
20
24.2174786
40
0.8411912
50
359.7944096
51
6.7743321
0
LINE
8
right_labelLayer
10
153.4826172
20
23.5371165
11
153.4826172
21
23.3882884
0
LINE
8
right_labelLayer
10
152.9060547
20
23.7457102
11
152.9060547
21
24.5097727
0
LINE
8
right_labelLayer
10
152.9060547
20
24.5097727
11
152.7220703
21
24.5097727
0
LINE
8
right_labelLayer
10
152.7220703
20
24.5097727
11
152.7220703
21
24.6035227
0
LINE
8
right_labelLayer
10
152.7220703
20
24.6035227
11
152.9060547
21
24.6843821
0
LINE
8
right_labelLayer
10
152.9060547
20
24.6843821
11
152.9880859
21
24.9586009
0
LINE
8
right_labelLayer
10
152.9880859
20
24.9586009
11
153.1005859
21
24.9586009
0
LINE
8
right_labelLayer
10
153.1005859
20
24.9586009
11
153.1005859
21
24.6609446
0
LINE
8
right_labelLayer
10
153.1005859
20
24.6609446
11
153.4732422
21
24.6609446
0
LINE
8
right_labelLayer
10
153.4732422
20
24.6609446
11
153.4732422
21
24.5097727
0
LINE
8
right_labelLayer
10
153.4732422
20
24.5097727
11
153.1005859
21
24.5097727
0
LINE
8
right_labelLayer
10
153.1005859
20
24.5097727
11
153.1005859
21
23.7539134
0
ARC
8
right_labelLayer
10
153.3081713
20
24.1525447
40
0.6388671
50
269.8802342
51
278.3027144
0
ARC
8
right_labelLayer
10
153.313756
20
24.1060851
40
0.592089
50
278.4171709
51
279.0064816
0
ARC
8
right_labelLayer
10
153.242537
20
24.5610083
40
1.0525527
50
278.9588206
51
280.5099454
0
ARC
8
right_labelLayer
10
153.3108796
20
24.1942556
40
0.6794867
50
280.4848072
51
282.6268001
0
ARC
8
right_labelLayer
10
153.3707443
20
23.9282674
40
0.4068453
50
282.5885192
51
285.5787386
0
ARC
8
right_labelLayer
10
153.4008461
20
23.817546
40
0.2921082
50
285.7238148
51
286.2562754
0
ARC
8
right_labelLayer
10
153.4008256
20
23.5612821
40
0.1913549
50
287.9893134
51
295.3048201
0
ARC
8
right_labelLayer
10
153.3546622
20
23.7009637
40
0.3384659
50
283.3073884
51
288.1192361
0
ARC
8
right_labelLayer
10
153.3059315
20
23.9042479
40
0.5475087
50
280.0068601
51
283.3734471
0
ARC
8
right_labelLayer
10
153.2731644
20
24.0821012
40
0.7283515
50
279.1871698
51
280.1141343
0
ARC
8
right_labelLayer
10
153.2532942
20
24.1951144
40
0.8430888
50
275.5257978
51
279.2939761
0
ARC
8
right_labelLayer
10
153.2758482
20
23.9594864
40
0.6063841
50
270.8933064
51
275.5485083
0
ARC
8
right_labelLayer
10
153.2786835
20
23.850946
40
0.497814
50
270.0031609
51
270.7617874
0
ARC
8
right_labelLayer
10
153.2708609
20
23.8611596
40
0.5080881
50
253.7848298
51
270.8852574
0
ARC
8
right_labelLayer
10
153.2106661
20
23.6558713
40
0.2941575
50
190.3817526
51
253.8772446
0
ARC
8
right_labelLayer
10
153.5174789
20
23.7388279
40
0.611463
50
179.355094
51
192.8477427
0
ARC
8
right_labelLayer
10
153.4923143
20
23.7514645
40
0.3917361
50
179.6418218
51
189.7503771
0
ARC
8
right_labelLayer
10
153.3540162
20
23.7267992
40
0.2512599
50
189.5480239
51
205.7873182
0
ARC
8
right_labelLayer
10
153.2971939
20
23.7005988
40
0.1887017
50
206.1298876
51
221.4079835
0
ARC
8
right_labelLayer
10
153.2908133
20
23.695758
40
0.1807153
50
221.5949044
51
262.3504346
0
ARC
8
right_labelLayer
10
153.3059678
20
23.7736938
40
0.2600163
50
261.326752
51
270.1912886
0
LINE
8
bottom_outsideCutPath
10
246
20
193
11
246
21
3
0
LINE
8
bottom_outsideCutPath
10
246
20
3
11
302
21
3
0
LINE
8
bottom_outsideCutPath
10
302
20
3
11
302
21
193
0
LINE
8
bottom_outsideCutPath
10
302
20
193
11
246
21
193
0
LINE
8
bottom_labelLayer
10
256.4835673
20
94.5712353
11
256.4179423
21
94.5712353
0
LINE
8
bottom_labelLayer
10
256.4179423
20
94.5712353
11
256.2265361
21
93.8001415
0
LINE
8
bottom_labelLayer
10
256.2265361
20
93.8001415
11
255.5757548
21
93.8001415
0
LINE
8
bottom_labelLayer
10
255.5757548
20
93.8001415
11
255.5757548
21
102.3095165
0
LINE
8
bottom_labelLayer
10
255.5757548
20
102.3095165
11
256.4835673
21
102.3095165
0
LINE
8
bottom_labelLayer
10
256.4835673
20
102.3095165
11
256.4835673
21
100.242329
0
LINE
8
bottom_labelLayer
10
256.4398173
20
98.995454
11
256.4835673
21
98.995454
0
ARC
8
bottom_labelLayer
10
258.3920511
20
97.1178742
40
2.7745884
50
74.239336
51
90.5623928
0
ARC
8
bottom_labelLayer
10
258.5755156
20
97.790923
40
2.0770199
50
38.5631229
51
74.0670311
0
ARC
8
bottom_labelLayer
10
258.103377
20
97.4238077
40
2.6750564
50
16.4709255
51
38.4075246
0
ARC
8
bottom_labelLayer
10
256.7432199
20
96.997302
40
4.1003909
50
5.1338354
51
16.7973404
0
ARC
8
bottom_labelLayer
10
255.0261275
20
96.8148998
40
5.8269843
50
359.8779292
51
5.40936
0
ARC
8
bottom_labelLayer
10
255.5304658
20
96.7710837
40
5.3227254
50
350.6562857
51
0.3380198
0
ARC
8
bottom_labelLayer
10
257.3860531
20
96.45547
40
3.4405309
50
335.8306151
51
350.8254686
0
ARC
8
bottom_labelLayer
10
258.2022992
20
96.1031682
40
2.5516247
50
321.3161409
51
335.5436075
0
ARC
8
bottom_labelLayer
10
258.5143532
20
95.8488914
40
2.1491074
50
274.0640052
51
321.4081006
0
ARC
8
bottom_labelLayer
10
258.3689759
20
96.7697938
40
3.0790301
50
269.9226145
51
275.5481265
0
ARC
8
bottom_labelLayer
10
258.3495075
20
96.4443124
40
2.7535885
50
255.7755371
51
270.318563
0
ARC
8
bottom_labelLayer
10
258.2709295
20
96.0951958
40
2.3958865
50
245.9801568
51
255.5455642
0
ARC
8
bottom_labelLayer
10
258.1187255
20
95.7412467
40
2.0106391
50
215.5850113
51
245.836186
0
ARC
8
bottom_labelLayer
10
237.5560572
20
100.2263336
40
18.9275169
50
358.1123372
51
0.0484198
0
ARC
8
bottom_labelLayer
10
242.8240435
20
100.0494841
40
13.6565643
50
355.7238536
51
358.1258727
0
ARC
8
bottom_labelLayer
10
245.1749237
20
99.8877082
40
11.3001746
50
355.4712496
51
355.6530492
0
ARC
8
bottom_labelLayer
10
258.176598
20
97.814858
40
2.0640155
50
95.1835124
51
145.1108964
0
ARC
8
bottom_labelLayer
10
258.3580155
20
96.7918257
40
3.1005106
50
89.8743069
51
96.8145219
0
ARC
8
bottom_labelLayer
10
258.2145617
20
96.5812092
40
2.5510344
50
89.573133
51
100.7324023
0
ARC
8
bottom_labelLayer
10
258.0257143
20
97.5353361
40
1.5784493
50
100.4469372
51
119.6700684
0
ARC
8
bottom_labelLayer
10
257.8505971
20
97.8627397
40
1.2073282
50
120.1403063
51
142.4248847
0
ARC
8
bottom_labelLayer
10
258.140312
20
97.6710838
40
1.5540125
50
143.3382092
51
161.2560062
0
ARC
8
bottom_labelLayer
10
259.3518747
20
97.2409386
40
2.8395985
50
160.8926456
51
171.2334036
0
ARC
8
bottom_labelLayer
10
261.3744203
20
96.9146574
40
4.8882646
50
171.0668019
51
177.8456926
0
ARC
8
bottom_labelLayer
10
263.477868
20
96.8076775
40
6.9943026
50
177.6176836
51
180.042534
0
ARC
8
bottom_labelLayer
10
262.4859364
20
96.7790488
40
6.0024148
50
179.7762883
51
185.7075138
0
ARC
8
bottom_labelLayer
10
260.1193925
20
96.5352124
40
3.6233607
50
185.5924867
51
194.2050382
0
ARC
8
bottom_labelLayer
10
258.6034118
20
96.1417656
40
2.0572054
50
193.9430617
51
208.0218197
0
ARC
8
bottom_labelLayer
10
257.9900372
20
95.8297254
40
1.3691976
50
208.5536456
51
217.5605426
0
ARC
8
bottom_labelLayer
10
257.9400675
20
95.8089431
40
1.3169915
50
218.1690649
51
253.8046893
0
ARC
8
bottom_labelLayer
10
258.1843438
20
96.5620764
40
2.1085122
50
253.1382634
51
266.8482884
0
ARC
8
bottom_labelLayer
10
258.2528384
20
97.3698496
40
2.9189279
50
266.3775856
51
270.0511122
0
ARC
8
bottom_labelLayer
10
258.2748073
20
96.2605372
40
1.8097181
50
269.386892
51
285.863042
0
ARC
8
bottom_labelLayer
10
258.4092572
20
95.7746126
40
1.3055527
50
286.0163047
51
326.8497327
0
ARC
8
bottom_labelLayer
10
257.7603289
20
96.2045032
40
2.0839472
50
326.7105167
51
343.6661823
0
ARC
8
bottom_labelLayer
10
256.5455655
20
96.5756948
40
3.3541053
50
343.4171501
51
353.6368951
0
ARC
8
bottom_labelLayer
10
254.7108412
20
96.7933986
40
5.2016709
50
353.4934595
51
0.2205645
0
ARC
8
bottom_labelLayer
10
254.5490849
20
96.8351326
40
5.3634325
50
359.76808
51
6.3095266
0
ARC
8
bottom_labelLayer
10
256.5693627
20
97.0669703
40
3.3299239
50
6.1648951
51
16.0396232
0
ARC
8
bottom_labelLayer
10
257.8708155
20
97.4505059
40
1.9731846
50
15.7779747
51
32.0151023
0
ARC
8
bottom_labelLayer
10
258.2763322
20
97.6826972
40
1.5063578
50
32.7037518
51
35.5238479
0
ARC
8
bottom_labelLayer
10
258.4250888
20
97.7884156
40
1.323862
50
35.5408279
51
79.8011309
0
ARC
8
bottom_labelLayer
10
258.2473065
20
97.0326238
40
2.0995939
50
78.6781541
51
90.3749324
0
ARC
8
bottom_labelLayer
10
262.9233571
20
96.7708718
40
4.689223
50
349.1762026
51
0.3862756
0
ARC
8
bottom_labelLayer
10
264.502107
20
96.4561461
40
3.0794838
50
330.2507046
51
349.4116421
0
ARC
8
bottom_labelLayer
10
264.9879705
20
96.2036123
40
2.5324402
50
318.1439705
51
329.7566382
0
ARC
8
bottom_labelLayer
10
265.0756581
20
96.1333395
40
2.4202459
50
278.895913
51
317.9979129
0
ARC
8
bottom_labelLayer
10
264.8497111
20
97.2158665
40
3.5251336
50
269.750304
51
279.8033385
0
ARC
8
bottom_labelLayer
10
264.8130687
20
96.6059313
40
2.9152425
50
253.543693
51
270.4182341
0
ARC
8
bottom_labelLayer
10
264.7160247
20
96.230543
40
2.5277755
50
238.8115542
51
253.2428445
0
ARC
8
bottom_labelLayer
10
264.6847064
20
96.1675619
40
2.4576856
50
207.7947002
51
238.6757983
0
ARC
8
bottom_labelLayer
10
265.1342297
20
96.4428603
40
2.9839106
50
205.6560588
51
208.4460447
0
ARC
8
bottom_labelLayer
10
265.4802635
20
96.5870309
40
3.3583087
50
188.9102415
51
205.3171459
0
ARC
8
bottom_labelLayer
10
266.6468467
20
96.7846104
40
4.5414396
50
179.7744866
51
189.0932601
0
ARC
8
bottom_labelLayer
10
266.818911
20
96.8344112
40
4.7135768
50
169.244298
51
180.3880776
0
ARC
8
bottom_labelLayer
10
265.2182111
20
97.1508123
40
3.0819748
50
150.7111298
51
169.4695617
0
ARC
8
bottom_labelLayer
10
264.7072256
20
97.4132231
40
2.5080255
50
138.1759441
51
150.2287426
0
ARC
8
bottom_labelLayer
10
264.622226
20
97.4784506
40
2.4012011
50
99.1759313
51
137.9832801
0
ARC
8
bottom_labelLayer
10
264.8561779
20
96.3774408
40
3.5258641
50
89.7326526
51
100.0759634
0
ARC
8
bottom_labelLayer
10
264.9029347
20
96.8529348
40
3.0504822
50
73.5222721
51
90.569212
0
ARC
8
bottom_labelLayer
10
265.0818278
20
97.5029011
40
2.3765029
50
41.1445616
51
73.2133789
0
ARC
8
bottom_labelLayer
10
264.7403372
20
97.2093944
40
2.8267816
50
13.5014265
51
41.0703426
0
ARC
8
bottom_labelLayer
10
263.4209985
20
96.864139
40
4.1903574
50
1.1277054
51
13.8800202
0
ARC
8
bottom_labelLayer
10
262.2843001
20
96.8032312
40
5.3281736
50
359.9919782
51
1.5419797
0
ARC
8
bottom_labelLayer
10
267.6431438
20
96.7788932
40
4.597137
50
179.705963
51
187.9160921
0
ARC
8
bottom_labelLayer
10
265.9570624
20
96.536689
40
2.8937759
50
187.7639424
51
200.0977009
0
ARC
8
bottom_labelLayer
10
265.0282041
20
96.1963537
40
1.9045311
50
200.0845996
51
216.9131484
0
ARC
8
bottom_labelLayer
10
264.689015
20
95.9541578
40
1.4879038
50
217.3009709
51
261.7099087
0
ARC
8
bottom_labelLayer
10
264.846476
20
96.7055339
40
2.2546322
50
260.5032751
51
270.247709
0
ARC
8
bottom_labelLayer
10
264.8765321
20
96.5594434
40
2.1086185
50
269.4481638
51
284.7255471
0
ARC
8
bottom_labelLayer
10
265.0434578
20
95.9403647
40
1.4674485
50
284.5662524
51
322.6333639
0
ARC
8
bottom_labelLayer
10
264.6531746
20
96.2223258
40
1.948801
50
323.0089386
51
342.63905
0
ARC
8
bottom_labelLayer
10
263.5368706
20
96.587165
40
3.1231517
50
342.3615863
51
353.7537301
0
ARC
8
bottom_labelLayer
10
261.8899917
20
96.785675
40
4.7818864
50
353.5362895
51
0.2014186
0
ARC
8
bottom_labelLayer
10
262.1423019
20
96.8256028
40
4.5296057
50
359.7075807
51
7.8972763
0
ARC
8
bottom_labelLayer
10
263.8011852
20
97.0634208
40
2.85379
50
7.743964
51
20.0690431
0
ARC
8
bottom_labelLayer
10
264.7255643
20
97.4026358
40
1.8691374
50
20.0256689
51
37.4350725
0
ARC
8
bottom_labelLayer
10
265.0322623
20
97.6202641
40
1.4933802
50
37.9577804
51
80.4006072
0
ARC
8
bottom_labelLayer
10
264.8579719
20
96.8425907
40
2.2896172
50
79.345367
51
90.3174551
0
ARC
8
bottom_labelLayer
10
264.8257015
20
96.9717651
40
2.1604964
50
89.4806171
51
103.8804712
0
ARC
8
bottom_labelLayer
10
264.6441639
20
97.6630651
40
1.4458705
50
103.4685213
51
142.3118957
0
ARC
8
bottom_labelLayer
10
264.9970822
20
97.4148665
40
1.8769917
50
142.9025416
51
162.3749707
0
ARC
8
bottom_labelLayer
10
266.1091428
20
97.0442747
40
3.049105
50
162.0653123
51
173.1674883
0
ARC
8
bottom_labelLayer
10
267.8431293
20
96.8231138
40
4.7971064
50
173.0086059
51
180.246384
0
LINE
8
bottom_labelLayer
10
271.9601298
20
94.5493603
11
271.9601298
21
93.854829
0
LINE
8
bottom_labelLayer
10
269.2695048
20
95.5227978
11
269.2695048
21
99.0884228
0
LINE
8
bottom_labelLayer
10
269.2695048
20
99.0884228
11
268.4109111
21
99.0884228
0
LINE
8
bottom_labelLayer
10
268.4109111
20
99.0884228
11
268.4109111
21
99.5259228
0
LINE
8
bottom_labelLayer
10
268.4109111
20
99.5259228
11
269.2695048
21
99.9032665
0
LINE
8
bottom_labelLayer
10
269.2695048
20
99.9032665
11
269.6523173
21
101.182954
0
LINE
8
bottom_labelLayer
10
269.6523173
20
101.182954
11
270.1773173
21
101.182954
0
LINE
8
bottom_labelLayer
10
270.1773173
20
101.182954
11
270.1773173
21
99.7938915
0
LINE
8
bottom_labelLayer
10
270.1773173
20
99.7938915
11
271.9163798
21
99.7938915
0
LINE
8
bottom_labelLayer
10
271.9163798
20
99.7938915
11
271.9163798
21
99.0884228
0
LINE
8
bottom_labelLayer
10
271.9163798
20
99.0884228
11
270.1773173
21
99.0884228
0
LINE
8
bottom_labelLayer
10
270.1773173
20
99.0884228
11
270.1773173
21
95.561079
0
ARC
8
bottom_labelLayer
10
271.146043
20
97.4213576
40
2.9813789
50
269.8803555
51
278.3028375
0
ARC
8
bottom_labelLayer
10
271.1743842
20
97.1896636
40
2.7480261
50
278.4157119
51
279.0082513
0
ARC
8
bottom_labelLayer
10
270.8397837
20
99.3272021
40
4.9115922
50
278.9590784
51
280.5103042
0
ARC
8
bottom_labelLayer
10
271.1585911
20
97.6164817
40
3.1714201
50
280.484975
51
282.6266422
0
ARC
8
bottom_labelLayer
10
271.438301
20
96.37376
40
1.89761
50
282.5876969
51
285.5794944
0
ARC
8
bottom_labelLayer
10
271.5775977
20
95.861326
40
1.3665962
50
285.7240657
51
286.255192
0
ARC
8
bottom_labelLayer
10
271.5784573
20
94.6620882
40
0.8929397
50
287.9888912
51
295.3048036
0
ARC
8
bottom_labelLayer
10
271.3630969
20
95.3136481
40
1.5791634
50
283.3069703
51
288.1198675
0
ARC
8
bottom_labelLayer
10
271.1355572
20
96.2628013
40
2.5552066
50
280.0071002
51
283.3734687
0
ARC
8
bottom_labelLayer
10
270.983342
20
97.0888755
40
3.3951695
50
279.1862977
51
280.1143009
0
ARC
8
bottom_labelLayer
10
270.8898981
20
97.6204103
40
3.9348119
50
275.5260848
51
279.2938825
0
ARC
8
bottom_labelLayer
10
270.9952099
20
96.5204542
40
2.8298266
50
270.8932566
51
275.5484021
0
ARC
8
bottom_labelLayer
10
271.0084546
20
96.0153129
40
2.3245464
50
270.002777
51
270.7609419
0
ARC
8
bottom_labelLayer
10
270.9719342
20
96.0615564
40
2.3710729
50
253.7847933
51
270.885255
0
ARC
8
bottom_labelLayer
10
270.6910256
20
95.1035503
40
1.3727358
50
190.3817792
51
253.8772294
0
ARC
8
bottom_labelLayer
10
272.1228082
20
95.4906803
40
2.8534843
50
179.355092
51
192.8477869
0
ARC
8
bottom_labelLayer
10
272.0053039
20
95.5496449
40
1.8280224
50
179.6416195
51
189.750614
0
ARC
8
bottom_labelLayer
10
271.3599805
20
95.4345428
40
1.1725347
50
189.5479495
51
205.7874058
0
ARC
8
bottom_labelLayer
10
271.0947792
20
95.3122485
40
0.8805574
50
206.1293942
51
221.4083743
0
ARC
8
bottom_labelLayer
10
271.0650433
20
95.289686
40
0.8433361
50
221.59492
51
262.3505302
0
ARC
8
bottom_labelLayer
10
271.1357658
20
95.6533555
40
1.2133771
50
261.3265424
51
270.191315
0
LINE
8
bottom_labelLayer
10
275.9140361
20
94.5493603
11
275.9140361
21
93.854829
0
LINE
8
bottom_labelLayer
10
273.2234111
20
95.5227978
11
273.2234111
21
99.0884228
0
LINE
8
bottom_labelLayer
10
273.2234111
20
99.0884228
11
272.3648173
21
99.0884228
0
LINE
8
bottom_labelLayer
10
272.3648173
20
99.0884228
11
272.3648173
21
99.5259228
0
LINE
8
bottom_labelLayer
10
272.3648173
20
99.5259228
11
273.2234111
21
99.9032665
0
LINE
8
bottom_labelLayer
10
273.2234111
20
99.9032665
11
273.6062236
21
101.182954
0
LINE
8
bottom_labelLayer
10
273.6062236
20
101.182954
11
274.1312236
21
101.182954
0
LINE
8
bottom_labelLayer
10
274.1312236
20
101.182954
11
274.1312236
21
99.7938915
0
LINE
8
bottom_labelLayer
10
274.1312236
20
99.7938915
11
275.8702861
21
99.7938915
0
LINE
8
bottom_labelLayer
10
275.8702861
20
99.7938915
11
275.8702861
21
99.0884228
0
LINE
8
bottom_labelLayer
10
275.8702861
20
99.0884228
11
274.1312236
21
99.0884228
0
LINE
8
bottom_labelLayer
10
274.1312236
20
99.0884228
11
274.1312236
21
95.561079
0
ARC
8
bottom_labelLayer
10
275.0999492
20
97.4213576
40
2.9813789
50
269.8803555
51
278.3028375
0
ARC
8
bottom_labelLayer
10
275.1282904
20
97.1896636
40
2.7480261
50
278.4157119
51
279.0082513
0
ARC
8
bottom_labelLayer
10
274.7936899
20
99.3272021
40
4.9115922
50
278.9590784
51
280.5103042
0
ARC
8
bottom_labelLayer
10
275.1124974
20
97.6164817
40
3.1714201
50
280.484975
51
282.6266422
0
ARC
8
bottom_labelLayer
10
275.3922072
20
96.37376
40
1.89761
50
282.5876969
51
285.5794944
0
ARC
8
bottom_labelLayer
10
275.5315039
20
95.861326
40
1.3665962
50
285.7240657
51
286.255192
0
ARC
8
bottom_labelLayer
10
275.5323636
20
94.6620882
40
0.8929397
50
287.9888912
51
295.3048036
0
ARC
8
bottom_labelLayer
10
275.3170031
20
95.3136481
40
1.5791634
50
283.3069703
51
288.1198675
0
ARC
8
bottom_labelLayer
10
275.0894635
20
96.2628013
40
2.5552066
50
280.0071002
51
283.3734687
0
ARC
8
bottom_labelLayer
10
274.9372482
20
97.0888755
40
3.3951695
50
279.1862977
51
280.1143009
0
ARC
8
bottom_labelLayer
10
274.8438044
20
97.6204103
40
3.9348119
50
275.5260848
51
279.2938825
0
ARC
8
bottom_labelLayer
10
274.9491162
20
96.5204542
40
2.8298266
50
270.8932566
51
275.5484021
0
ARC
8
bottom_labelLayer
10
274.9623609
20
96.0153129
40
2.3245464
50
270.002777
51
270.7609419
0
ARC
8
bottom_labelLayer
10
274.9258405
20
96.0615564
40
2.3710729
50
253.7847933
51
270.885255
0
ARC
8
bottom_labelLayer
10
274.6449318
20
95.1035503
40
1.3727358
50
190.3817792
51
253.8772294
0
ARC
8
bottom_labelLayer
10
276.0767145
20
95.4906803
40
2.8534843
50
179.355092
51
192.8477869
0
ARC
8
bottom_labelLayer
10
275.9592102
20
95.5496449
40
1.8280224
50
179.6416195
51
189.750614
0
ARC
8
bottom_labelLayer
10
275.3138868
20
95.4345428
40
1.1725347
50
189.5479495
51
205.7874058
0
ARC
8
bottom_labelLayer
10
275.0486854
20
95.3122485
40
0.8805574
50
206.1293942
51
221.4083743
0
ARC
8
bottom_labelLayer
10
275.0189495
20
95.289686
40
0.8433361
50
221.59492
51
262.3505302
0
ARC
8
bottom_labelLayer
10
275.089672
20
95.6533555
40
1.2133771
50
261.3265424
51
270.191315
0
ARC
8
bottom_labelLayer
10
277.5960133
20
96.7708718
40
4.689223
50
349.1762026
51
0.3862756
0
ARC
8
bottom_labelLayer
10
279.1747633
20
96.4561461
40
3.0794838
50
330.2507046
51
349.4116421
0
ARC
8
bottom_labelLayer
10
279.6606268
20
96.2036123
40
2.5324402
50
318.1439705
51
329.7566382
0
ARC
8
bottom_labelLayer
10
279.7483144
20
96.1333395
40
2.4202459
50
278.895913
51
317.9979129
0
ARC
8
bottom_labelLayer
10
279.5223673
20
97.2158665
40
3.5251336
50
269.750304
51
279.8033385
0
ARC
8
bottom_labelLayer
10
279.485725
20
96.6059313
40
2.9152425
50
253.543693
51
270.4182341
0
ARC
8
bottom_labelLayer
10
279.3886809
20
96.230543
40
2.5277755
50
238.8115542
51
253.2428445
0
ARC
8
bottom_labelLayer
10
279.3573626
20
96.1675619
40
2.4576856
50
207.7947002
51
238.6757983
0
ARC
8
bottom_labelLayer
10
279.806886
20
96.4428603
40
2.9839106
50
205.6560588
51
208.4460447
0
ARC
8
bottom_labelLayer
10
280.1529197
20
96.5870309
40
3.3583087
50
188.9102415
51
205.3171459
0
ARC
8
bottom_labelLayer
10
281.319503
20
96.7846104
40
4.5414396
50
179.7744866
51
189.0932601
0
ARC
8
bottom_labelLayer
10
281.4915672
20
96.8344112
40
4.7135768
50
169.244298
51
180.3880776
0
ARC
8
bottom_labelLayer
10
279.8908674
20
97.1508123
40
3.0819748
50
150.7111298
51
169.4695617
0
ARC
8
bottom_labelLayer
10
279.3798818
20
97.4132231
40
2.5080255
50
138.1759441
51
150.2287426
0
ARC
8
bottom_labelLayer
10
279.2948823
20
97.4784506
40
2.4012011
50
99.1759313
51
137.9832801
0
ARC
8
bottom_labelLayer
10
279.5288341
20
96.3774408
40
3.5258641
50
89.7326526
51
100.0759634
0
ARC
8
bottom_labelLayer
10
279.5755909
20
96.8529348
40
3.0504822
50
73.5222721
51
90.569212
0
ARC
8
bottom_labelLayer
10
279.7544841
20
97.5029011
40
2.3765029
50
41.1445616
51
73.2133789
0
ARC
8
bottom_labelLayer
10
279.4129935
20
97.2093944
40
2.8267816
50
13.5014265
51
41.0703426
0
ARC
8
bottom_labelLayer
10
278.0936548
20
96.864139
40
4.1903574
50
1.1277054
51
13.8800202
0
ARC
8
bottom_labelLayer
10
276.9569563
20
96.8032312
40
5.3281736
50
359.9919782
51
1.5419797
0
ARC
8
bottom_labelLayer
10
282.3158001
20
96.7788932
40
4.597137
50
179.705963
51
187.9160921
0
ARC
8
bottom_labelLayer
10
280.6297187
20
96.536689
40
2.8937759
50
187.7639424
51
200.0977009
0
ARC
8
bottom_labelLayer
10
279.7008604
20
96.1963537
40
1.9045311
50
200.0845996
51
216.9131484
0
ARC
8
bottom_labelLayer
10
279.3616713
20
95.9541578
40
1.4879038
50
217.3009709
51
261.7099087
0
ARC
8
bottom_labelLayer
10
279.5191323
20
96.7055339
40
2.2546322
50
260.5032751
51
270.247709
0
ARC
8
bottom_labelLayer
10
279.5491883
20
96.5594434
40
2.1086185
50
269.4481638
51
284.7255471
0
ARC
8
bottom_labelLayer
10
279.7161141
20
95.9403647
40
1.4674485
50
284.5662524
51
322.6333639
0
ARC
8
bottom_labelLayer
10
279.3258308
20
96.2223258
40
1.948801
50
323.0089386
51
342.63905
0
ARC
8
bottom_labelLayer
10
278.2095269
20
96.587165
40
3.1231517
50
342.3615863
51
353.7537301
0
ARC
8
bottom_labelLayer
10
276.562648
20
96.785675
40
4.7818864
50
353.5362895
51
0.2014186
0
ARC
8
bottom_labelLayer
10
276.8149581
20
96.8256028
40
4.5296057
50
359.7075807
51
7.8972763
0
ARC
8
bottom_labelLayer
10
278.4738414
20
97.0634208
40
2.85379
50
7.743964
51
20.0690431
0
ARC
8
bottom_labelLayer
10
279.3982206
20
97.4026358
40
1.8691374
50
20.0256689
51
37.4350725
0
ARC
8
bottom_labelLayer
10
279.7049186
20
97.6202641
40
1.4933802
50
37.9577804
51
80.4006072
0
ARC
8
bottom_labelLayer
10
279.5306282
20
96.8425907
40
2.2896172
50
79.345367
51
90.3174551
0
ARC
8
bottom_labelLayer
10
279.4983578
20
96.9717651
40
2.1604964
50
89.4806171
51
103.8804712
0
ARC
8
bottom_labelLayer
10
279.3168201
20
97.6630651
40
1.4458705
50
103.4685213
51
142.3118957
0
ARC
8
bottom_labelLayer
10
279.6697385
20
97.4148665
40
1.8769917
50
142.9025416
51
162.3749707
0
ARC
8
bottom_labelLayer
10
280.781799
20
97.0442747
40
3.049105
50
162.0653123
51
173.1674883
0
ARC
8
bottom_labelLayer
10
282.5157855
20
96.8231138
40
4.7971064
50
173.0086059
51
180.246384
0
LINE
8
bottom_labelLayer
10
292.4241923
20
93.8001415
11
291.5163798
21
93.8001415
0
LINE
8
bottom_labelLayer
10
291.5163798
20
93.8001415
11
291.5163798
21
97.6993603
0
LINE
8
bottom_labelLayer
10
288.6015361
20
97.1470165
11
288.6015361
21
93.8001415
0
LINE
8
bottom_labelLayer
10
288.6015361
20
93.8001415
11
287.6937236
21
93.8001415
0
LINE
8
bottom_labelLayer
10
287.6937236
20
93.8001415
11
287.6937236
21
97.6993603
0
LINE
8
bottom_labelLayer
10
284.7843486
20
96.9446728
11
284.7843486
21
93.8001415
0
LINE
8
bottom_labelLayer
10
284.7843486
20
93.8001415
11
283.8765361
21
93.8001415
0
LINE
8
bottom_labelLayer
10
283.8765361
20
93.8001415
11
283.8765361
21
99.7938915
0
LINE
8
bottom_labelLayer
10
283.8765361
20
99.7938915
11
284.6148173
21
99.7938915
0
LINE
8
bottom_labelLayer
10
284.6148173
20
99.7938915
11
284.7624736
21
98.973579
0
LINE
8
bottom_labelLayer
10
284.7624736
20
98.973579
11
284.8062236
21
98.973579
0
LINE
8
bottom_labelLayer
10
288.4155986
20
98.886079
11
288.4593486
21
98.886079
0
LINE
8
bottom_labelLayer
10
292.4241923
20
97.7102978
11
292.4241923
21
93.8001415
0
ARC
8
bottom_labelLayer
10
288.8382954
20
97.7136245
40
2.6781224
50
359.6948294
51
8.1471355
0
ARC
8
bottom_labelLayer
10
289.8247265
20
97.8596038
40
1.6809659
50
7.9864842
51
20.7949216
0
ARC
8
bottom_labelLayer
10
290.3700046
20
98.0684782
40
1.0970546
50
20.707132
51
40.0217101
0
ARC
8
bottom_labelLayer
10
290.4896279
20
98.1467453
40
0.9552661
50
41.0408148
51
73.1792373
0
ARC
8
bottom_labelLayer
10
290.3165409
20
97.6232456
40
1.5065221
50
72.6394909
51
86.2568699
0
ARC
8
bottom_labelLayer
10
290.2610852
20
97.0248819
40
2.1072926
50
85.8143821
51
90.0684597
0
ARC
8
bottom_labelLayer
10
290.2407149
20
96.7963013
40
2.3359397
50
89.5621128
51
101.2961727
0
ARC
8
bottom_labelLayer
10
290.0647781
20
97.638567
40
1.4755471
50
101.0031991
51
121.7840842
0
ARC
8
bottom_labelLayer
10
289.9310288
20
97.877349
40
1.2021855
50
122.3597769
51
140.2883785
0
ARC
8
bottom_labelLayer
10
290.1716631
20
97.7009088
40
1.5001383
50
140.9765251
51
161.1699631
0
ARC
8
bottom_labelLayer
10
291.0781955
20
97.3782928
40
2.4623145
50
160.8731523
51
172.5272803
0
ARC
8
bottom_labelLayer
10
292.5930168
20
97.1690831
40
3.9914925
50
172.3776478
51
180.1829584
0
ARC
8
bottom_labelLayer
10
293.766492
20
97.1469114
40
5.1649559
50
179.895436
51
179.998834
0
ARC
8
bottom_labelLayer
10
285.0156392
20
97.7136245
40
2.6781224
50
359.6948294
51
8.1471355
0
ARC
8
bottom_labelLayer
10
286.0020703
20
97.8596038
40
1.6809659
50
7.9864842
51
20.7949216
0
ARC
8
bottom_labelLayer
10
286.5473483
20
98.0684782
40
1.0970546
50
20.707132
51
40.0217101
0
ARC
8
bottom_labelLayer
10
286.66946
20
98.1484652
40
0.9522601
50
41.0610635
51
72.899369
0
ARC
8
bottom_labelLayer
10
286.4930894
20
97.6233883
40
1.5060518
50
72.3601352
51
85.9561622
0
ARC
8
bottom_labelLayer
10
286.433384
20
97.0063466
40
2.1258283
50
85.5237584
51
90.0792855
0
ARC
8
bottom_labelLayer
10
286.4130211
20
96.8775042
40
2.2547359
50
89.5572991
51
101.4832425
0
ARC
8
bottom_labelLayer
10
286.2399631
20
97.6883145
40
1.4257264
50
101.1546468
51
123.0655473
0
ARC
8
bottom_labelLayer
10
286.1223223
20
97.8932382
40
1.1898795
50
123.702012
51
142.3022561
0
ARC
8
bottom_labelLayer
10
286.39788
20
97.7062944
40
1.5223685
50
143.0769637
51
161.3914041
0
ARC
8
bottom_labelLayer
10
287.5086343
20
97.3140015
40
2.7002901
50
161.023461
51
171.4469184
0
ARC
8
bottom_labelLayer
10
289.3474474
20
97.0259548
40
4.561507
50
171.3041702
51
178.3501499
0
ARC
8
bottom_labelLayer
10
291.1052841
20
96.94746
40
6.3209361
50
178.0976879
51
180.0252644
0
ARC
8
bottom_labelLayer
10
286.3441817
20
98.0691833
40
1.7841656
50
117.1209696
51
149.5423585
0
ARC
8
bottom_labelLayer
10
286.5262705
20
97.745543
40
2.1552782
50
93.8343421
51
117.5072172
0
ARC
8
bottom_labelLayer
10
286.5765602
20
97.3001251
40
2.6031418
50
89.9661407
51
94.2831624
0
ARC
8
bottom_labelLayer
10
286.6066973
20
96.9312199
40
2.9721842
50
77.5572411
51
90.5513154
0
ARC
8
bottom_labelLayer
10
286.8824821
20
98.1174264
40
1.7544713
50
52.7027107
51
78.0053696
0
ARC
8
bottom_labelLayer
10
286.9807388
20
98.3002369
40
1.5498496
50
22.2098114
51
51.4970481
0
ARC
8
bottom_labelLayer
10
290.1038904
20
97.9435888
40
1.8954698
50
119.4041789
51
150.1828913
0
ARC
8
bottom_labelLayer
10
290.3142782
20
97.6236051
40
2.2776765
50
118.2585133
51
120.0628547
0
ARC
8
bottom_labelLayer
10
290.3135078
20
97.6005445
40
2.2976532
50
95.8635012
51
117.9693304
0
ARC
8
bottom_labelLayer
10
290.3912685
20
97.0382941
40
2.8649752
50
89.9196543
51
96.2617788
0
ARC
8
bottom_labelLayer
10
290.4162361
20
96.7477391
40
3.155597
50
79.9360906
51
90.3803905
0
ARC
8
bottom_labelLayer
10
290.6264968
20
97.8864862
40
1.997645
50
62.972337
51
80.1665009
0
ARC
8
bottom_labelLayer
10
290.8463037
20
98.3374433
40
1.4960812
50
44.2289589
51
62.6229497
0
ARC
8
bottom_labelLayer
10
290.7809256
20
98.3085574
40
1.5632755
50
19.5612227
51
43.3161391
0
ARC
8
bottom_labelLayer
10
289.8314756
20
97.9519439
40
2.5773902
50
7.5042014
51
19.9645309
0
ARC
8
bottom_labelLayer
10
288.2604075
20
97.7313206
40
4.1638377
50
359.7107178
51
7.6907086
0
ENDSEC
0
EOF