0
SECTION
2
HEADER
9
$INSUNITS
70
4
9
$ACADVER
1
AC1014
9
$HANDSEED
5
FFFF
0
ENDSEC
0
SECTION
2
TABLES
0
TABLE
2
VPORT
5
8
100
AcDbSymbolTable
0
ENDTAB
0
TABLE
2
LTYPE
5
5
100
AcDbSymbolTable
0
LTYPE
5
14
100
AcDbSymbolTableRecord
100
AcDbLinetypeTableRecord
2
BYBLOCK
70
0
0
LTYPE
5
15
100
AcDbSymbolTableRecord
100
AcDbLinetypeTableRecord
2
BYLAYER
70
0
0
ENDTAB
0
TABLE
2
LAYER
5
2
100
AcDbSymbolTable
70
2
0
LAYER
5
50
100
AcDbSymbolTableRecord
100
AcDbLayerTableRecord
2
0
70
0
6
CONTINUOUS
0
ENDTAB
0
TABLE
2
STYLE
5
3
100
AcDbSymbolTable
70
1
0
STYLE
5
11
100
AcDbSymbolTableRecord
100
AcDbTextStyleTableRecord
2
STANDARD
70
0
0
ENDTAB
0
TABLE
2
VIEW
5
6
100
AcDbSymbolTable
70
0
0
ENDTAB
0
TABLE
2
UCS
5
7
100
AcDbSymbolTable
70
0
0
ENDTAB
0
TABLE
2
APPID
5
9
100
AcDbSymbolTable
70
2
0
APPID
5
12
100
AcDbSymbolTableRecord
100
AcDbRegAppTableRecord
2
ACAD
70
0
0
ENDTAB
0
TABLE
2
DIMSTYLE
5
A
100
AcDbSymbolTable
70
1
0
ENDTAB
0
TABLE
2
BLOCK_RECORD
5
1
100
AcDbSymbolTable
70
1
0
BLOCK_RECORD
5
1F
100
AcDbSymbolTableRecord
100
AcDbBlockTableRecord
2
*MODEL_SPACE
0
BLOCK_RECORD
5
1B
100
AcDbSymbolTableRecord
100
AcDbBlockTableRecord
2
*PAPER_SPACE
0
ENDTAB
0
ENDSEC
0
SECTION
2
BLOCKS
0
BLOCK
5
20
100
AcDbEntity
100
AcDbBlockBegin
2
*MODEL_SPACE
0
ENDBLK
5
21
100
AcDbEntity
100
AcDbBlockEnd
0
BLOCK
5
1C
100
AcDbEntity
100
AcDbBlockBegin
2
*PAPER_SPACE
0
ENDBLK
5
1D
100
AcDbEntity
100
AcDbBlockEnd
0
ENDSEC
0
SECTION
2
ENTITIES
0
LWPOLYLINE
5
100
100
AcDbEntity
8
0
100
AcDbPolyline
90
4
70
1
43
0.0
10
165
20
0
10
0
20
0
10
0
20
150
10
165
20
150
0
LINE
5
101
100
AcDbEntity
8
0
100
AcDbLine
10
0
20
0
30
0
11
25
21
0
31
0
0
LINE
5
102
100
AcDbEntity
8
0
100
AcDbLine
10
0
20
4
30
0
11
0
21
0
31
0
0
LWPOLYLINE
5
103
100
AcDbEntity
8
0
100
AcDbPolyline
90
6
70
1
43
0.0
10
0
20
2
10
9.3401899778665545
20
3.4944303964586485
42
-0.079494450586080276
10
15.65981002213344
20
3.4944303964586503
10
25
20
2
10
15.659810022133453
20
0.50556960354135272
42
-0.079494450586080956
10
9.340189977866542
20
0.50556960354135372
0
LWPOLYLINE
5
104
100
AcDbEntity
8
0
100
AcDbPolyline
90
6
70
1
43
0.0
10
15.65981002213344
20
8.4944303964586503
10
25
20
7
10
15.659810022133453
20
5.5055696035413524
42
-0.079494450586080956
10
9.340189977866542
20
5.5055696035413533
10
0
20
7
10
9.3401899778665545
20
8.4944303964586485
42
-0.079494450586080276
0
LWPOLYLINE
5
105
100
AcDbEntity
8
0
100
AcDbPolyline
90
6
70
1
43
0.0
10
15.65981002213344
20
13.49443039645865
10
25
20
12
10
15.659810022133453
20
10.505569603541353
42
-0.079494450586080956
10
9.340189977866542
20
10.505569603541353
10
0
20
12
10
9.3401899778665545
20
13.49443039645865
42
-0.079494450586080276
0
LWPOLYLINE
5
106
100
AcDbEntity
8
0
100
AcDbPolyline
90
6
70
1
43
0.0
10
15.65981002213344
20
18.49443039645865
10
25
20
17
10
15.659810022133453
20
15.505569603541353
42
-0.079494450586080956
10
9.340189977866542
20
15.505569603541353
10
0
20
17
10
9.3401899778665545
20
18.49443039645865
42
-0.079494450586080276
0
LWPOLYLINE
5
107
100
AcDbEntity
8
0
100
AcDbPolyline
90
6
70
1
43
0.0
10
15.65981002213344
20
23.494430396458654
10
25
20
22
10
15.659810022133446
20
20.505569603541346
42
-0.079494450586080845
10
9.340189977866542
20
20.505569603541353
10
0
20
22
10
9.3401899778665474
20
23.494430396458647
42
-0.079494450586080387
0
LWPOLYLINE
5
108
100
AcDbEntity
8
0
100
AcDbPolyline
90
6
70
1
43
0.0
10
15.65981002213344
20
28.494430396458654
10
25
20
27
10
15.659810022133446
20
25.505569603541346
42
-0.079494450586080845
10
9.340189977866542
20
25.505569603541353
10
0
20
27
10
9.3401899778665474
20
28.494430396458647
42
-0.079494450586080387
0
LWPOLYLINE
5
109
100
AcDbEntity
8
0
100
AcDbPolyline
90
6
70
1
43
0.0
10
15.65981002213344
20
33.494430396458654
10
25
20
32
10
15.659810022133446
20
30.505569603541346
42
-0.079494450586080845
10
9.340189977866542
20
30.505569603541353
10
0
20
32
10
9.3401899778665474
20
33.494430396458647
42
-0.079494450586080387
0
LWPOLYLINE
5
110
100
AcDbEntity
8
0
100
AcDbPolyline
90
6
70
1
43
0.0
10
15.65981002213344
20
38.494430396458654
10
25
20
37
10
15.659810022133446
20
35.505569603541346
42
-0.079494450586080845
10
9.340189977866542
20
35.505569603541353
10
0
20
37
10
9.3401899778665474
20
38.494430396458647
42
-0.079494450586080387
0
LWPOLYLINE
5
111
100
AcDbEntity
8
0
100
AcDbPolyline
90
6
70
1
43
0.0
10
15.65981002213344
20
43.494430396458654
10
25
20
42
10
15.659810022133446
20
40.505569603541346
42
-0.079494450586080845
10
9.340189977866542
20
40.505569603541353
10
0
20
42
10
9.3401899778665474
20
43.494430396458654
42
-0.079494450586080387
0
LWPOLYLINE
5
112
100
AcDbEntity
8
0
100
AcDbPolyline
90
6
70
1
43
0.0
10
15.65981002213344
20
48.494430396458654
10
25
20
47
10
15.659810022133446
20
45.505569603541346
42
-0.079494450586080845
10
9.340189977866542
20
45.505569603541353
10
0
20
47
10
9.3401899778665474
20
48.494430396458654
42
-0.079494450586080387
0
LWPOLYLINE
5
113
100
AcDbEntity
8
0
100
AcDbPolyline
90
6
70
1
43
0.0
10
15.65981002213344
20
53.494430396458654
10
25
20
52
10
15.659810022133446
20
50.505569603541346
42
-0.079494450586080845
10
9.340189977866542
20
50.505569603541353
10
0
20
52
10
9.3401899778665474
20
53.494430396458654
42
-0.079494450586080387
0
LWPOLYLINE
5
114
100
AcDbEntity
8
0
100
AcDbPolyline
90
6
70
1
43
0.0
10
15.65981002213344
20
58.494430396458654
10
25
20
57
10
15.659810022133446
20
55.505569603541346
42
-0.079494450586080845
10
9.340189977866542
20
55.505569603541353
10
0
20
57
10
9.3401899778665474
20
58.494430396458654
42
-0.079494450586080387
0
LWPOLYLINE
5
115
100
AcDbEntity
8
0
100
AcDbPolyline
90
6
70
1
43
0.0
10
15.65981002213344
20
63.494430396458654
10
25
20
62
10
15.659810022133446
20
60.505569603541346
42
-0.079494450586080845
10
9.340189977866542
20
60.505569603541353
10
0
20
62
10
9.3401899778665474
20
63.494430396458654
42
-0.079494450586080387
0
LWPOLYLINE
5
116
100
AcDbEntity
8
0
100
AcDbPolyline
90
6
70
1
43
0.0
10
15.65981002213344
20
68.494430396458654
10
25
20
67
10
15.659810022133446
20
65.505569603541346
42
-0.079494450586080845
10
9.340189977866542
20
65.505569603541346
10
0
20
67
10
9.3401899778665474
20
68.494430396458654
42
-0.079494450586080387
0
LWPOLYLINE
5
117
100
AcDbEntity
8
0
100
AcDbPolyline
90
6
70
1
43
0.0
10
15.65981002213344
20
73.494430396458654
10
25
20
72
10
15.659810022133446
20
70.505569603541346
42
-0.079494450586080845
10
9.340189977866542
20
70.505569603541346
10
0
20
72
10
9.3401899778665474
20
73.494430396458654
42
-0.079494450586080387
0
LWPOLYLINE
5
118
100
AcDbEntity
8
0
100
AcDbPolyline
90
6
70
1
43
0.0
10
15.65981002213344
20
78.494430396458654
10
25
20
77
10
15.659810022133446
20
75.505569603541346
42
-0.079494450586080845
10
9.340189977866542
20
75.505569603541346
10
0
20
77
10
9.3401899778665474
20
78.494430396458654
42
-0.079494450586080387
0
LWPOLYLINE
5
119
100
AcDbEntity
8
0
100
AcDbPolyline
90
6
70
1
43
0.0
10
15.65981002213344
20
83.49443039645864
10
25
20
82
10
15.659810022133442
20
80.50556960354136
42
-0.079494450586080845
10
9.340189977866542
20
80.50556960354136
10
0
20
82
10
9.3401899778665491
20
83.49443039645864
42
-0.079494450586080387
0
LWPOLYLINE
5
120
100
AcDbEntity
8
0
100
AcDbPolyline
90
6
70
1
43
0.0
10
15.65981002213344
20
88.49443039645864
10
25
20
87
10
15.659810022133442
20
85.50556960354136
42
-0.079494450586080845
10
9.340189977866542
20
85.50556960354136
10
0
20
87
10
9.3401899778665491
20
88.49443039645864
42
-0.079494450586080387
0
LWPOLYLINE
5
121
100
AcDbEntity
8
0
100
AcDbPolyline
90
6
70
1
43
0.0
10
15.65981002213344
20
93.49443039645864
10
25
20
92
10
15.659810022133442
20
90.50556960354136
42
-0.079494450586080845
10
9.340189977866542
20
90.50556960354136
10
0
20
92
10
9.3401899778665491
20
93.49443039645864
42
-0.079494450586080387
0
LWPOLYLINE
5
122
100
AcDbEntity
8
0
100
AcDbPolyline
90
6
70
1
43
0.0
10
15.65981002213344
20
98.49443039645864
10
25
20
97
10
15.659810022133442
20
95.50556960354136
42
-0.079494450586080845
10
9.340189977866542
20
95.50556960354136
10
0
20
97
10
9.3401899778665491
20
98.49443039645864
42
-0.079494450586080387
0
LWPOLYLINE
5
123
100
AcDbEntity
8
0
100
AcDbPolyline
90
6
70
1
43
0.0
10
15.65981002213344
20
103.49443039645864
10
25
20
102
10
15.659810022133442
20
100.50556960354136
42
-0.079494450586080845
10
9.340189977866542
20
100.50556960354136
10
0
20
102
10
9.3401899778665474
20
103.49443039645864
42
-0.079494450586080387
0
LWPOLYLINE
5
124
100
AcDbEntity
8
0
100
AcDbPolyline
90
6
70
1
43
0.0
10
15.65981002213344
20
108.49443039645864
10
25
20
107
10
15.659810022133442
20
105.50556960354136
42
-0.079494450586080845
10
9.340189977866542
20
105.50556960354136
10
0
20
107
10
9.3401899778665474
20
108.49443039645864
42
-0.079494450586080387
0
LWPOLYLINE
5
125
100
AcDbEntity
8
0
100
AcDbPolyline
90
6
70
1
43
0.0
10
15.65981002213344
20
113.49443039645864
10
25
20
112
10
15.659810022133442
20
110.50556960354136
42
-0.079494450586080845
10
9.340189977866542
20
110.50556960354136
10
0
20
112
10
9.3401899778665474
20
113.49443039645864
42
-0.079494450586080387
0
LWPOLYLINE
5
126
100
AcDbEntity
8
0
100
AcDbPolyline
90
6
70
1
43
0.0
10
15.65981002213344
20
118.49443039645864
10
25
20
117
10
15.659810022133442
20
115.50556960354136
42
-0.079494450586080845
10
9.340189977866542
20
115.50556960354136
10
0
20
117
10
9.3401899778665474
20
118.49443039645864
42
-0.079494450586080387
0
LWPOLYLINE
5
127
100
AcDbEntity
8
0
100
AcDbPolyline
90
6
70
1
43
0.0
10
15.65981002213344
20
123.49443039645864
10
25
20
122
10
15.659810022133442
20
120.50556960354136
42
-0.079494450586080845
10
9.340189977866542
20
120.50556960354136
10
0
20
122
10
9.3401899778665474
20
123.49443039645864
42
-0.079494450586080387
0
LWPOLYLINE
5
128
100
AcDbEntity
8
0
100
AcDbPolyline
90
6
70
1
43
0.0
10
15.65981002213344
20
128.49443039645865
10
25
20
127
10
15.659810022133442
20
125.50556960354136
42
-0.079494450586080845
10
9.340189977866542
20
125.50556960354136
10
0
20
127
10
9.3401899778665474
20
128.49443039645865
42
-0.079494450586080387
0
LWPOLYLINE
5
129
100
AcDbEntity
8
0
100
AcDbPolyline
90
6
70
1
43
0.0
10
15.65981002213344
20
133.49443039645865
10
25
20
132
10
15.659810022133442
20
130.50556960354135
42
-0.079494450586080845
10
9.340189977866542
20
130.50556960354135
10
0
20
132
10
9.3401899778665474
20
133.49443039645865
42
-0.079494450586080387
0
LWPOLYLINE
5
130
100
AcDbEntity
8
0
100
AcDbPolyline
90
6
70
1
43
0.0
10
15.65981002213344
20
138.49443039645865
10
25
20
137
10
15.659810022133442
20
135.50556960354135
42
-0.079494450586080845
10
9.340189977866542
20
135.50556960354135
10
0
20
137
10
9.3401899778665474
20
138.49443039645865
42
-0.079494450586080387
0
LWPOLYLINE
5
131
100
AcDbEntity
8
0
100
AcDbPolyline
90
6
70
1
43
0.0
10
15.65981002213344
20
143.49443039645865
10
25
20
142
10
15.659810022133446
20
140.50556960354135
42
-0.079494450586080956
10
9.340189977866542
20
140.50556960354135
10
0
20
142
10
9.3401899778665474
20
143.49443039645865
42
-0.079494450586080387
0
LWPOLYLINE
5
132
100
AcDbEntity
8
0
100
AcDbPolyline
90
6
70
1
43
0.0
10
15.65981002213344
20
148.49443039645865
10
25
20
147
10
15.659810022133446
20
145.50556960354135
42
-0.079494450586080956
10
9.340189977866542
20
145.50556960354135
10
0
20
147
10
9.3401899778665474
20
148.49443039645865
42
-0.079494450586080387
0
LWPOLYLINE
5
133
100
AcDbEntity
8
0
100
AcDbPolyline
90
6
70
1
43
0.0
10
15.65981002213344
20
153.49443039645865
10
25
20
152
10
15.659810022133446
20
150.50556960354135
42
-0.079494450586080956
10
9.340189977866542
20
150.50556960354135
10
0
20
152
10
9.3401899778665474
20
153.49443039645865
42
-0.079494450586080387
0
LWPOLYLINE
5
134
100
AcDbEntity
8
0
100
AcDbPolyline
90
6
70
1
43
0.0
10
45.659810022133442
20
3.4944303964586503
10
55
20
2
10
45.659810022133449
20
0.50556960354135272
42
-0.079494450586080956
10
39.340189977866544
20
0.50556960354135372
10
30
20
2
10
39.340189977866544
20
3.4944303964586441
42
-0.079494450586080498
0
LWPOLYLINE
5
135
100
AcDbEntity
8
0
100
AcDbPolyline
90
6
70
1
43
0.0
10
45.659810022133442
20
8.4944303964586503
10
55
20
7
10
45.659810022133449
20
5.5055696035413524
42
-0.079494450586080956
10
39.340189977866544
20
5.5055696035413533
10
30
20
7
10
39.340189977866544
20
8.4944303964586449
42
-0.079494450586080498
0
LWPOLYLINE
5
136
100
AcDbEntity
8
0
100
AcDbPolyline
90
6
70
1
43
0.0
10
45.659810022133442
20
13.49443039645865
10
55
20
12
10
45.659810022133449
20
10.505569603541353
42
-0.079494450586080956
10
39.340189977866544
20
10.505569603541353
10
30
20
12
10
39.340189977866544
20
13.494430396458643
42
-0.079494450586080498
0
LWPOLYLINE
5
137
100
AcDbEntity
8
0
100
AcDbPolyline
90
6
70
1
43
0.0
10
45.659810022133442
20
18.49443039645865
10
55
20
17
10
45.659810022133449
20
15.505569603541353
42
-0.079494450586080956
10
39.340189977866544
20
15.505569603541353
10
30
20
17
10
39.340189977866544
20
18.494430396458643
42
-0.079494450586080498
0
LWPOLYLINE
5
138
100
AcDbEntity
8
0
100
AcDbPolyline
90
6
70
1
43
0.0
10
45.659810022133442
20
23.494430396458654
10
55
20
22
10
45.659810022133449
20
20.505569603541346
42
-0.079494450586080845
10
39.340189977866544
20
20.505569603541353
10
30
20
22
10
39.340189977866544
20
23.494430396458647
42
-0.079494450586080498
0
LWPOLYLINE
5
139
100
AcDbEntity
8
0
100
AcDbPolyline
90
6
70
1
43
0.0
10
45.659810022133442
20
28.494430396458654
10
55
20
27
10
45.659810022133449
20
25.505569603541346
42
-0.079494450586080845
10
39.340189977866544
20
25.505569603541353
10
30
20
27
10
39.340189977866544
20
28.494430396458647
42
-0.079494450586080498
0
LWPOLYLINE
5
140
100
AcDbEntity
8
0
100
AcDbPolyline
90
6
70
1
43
0.0
10
45.659810022133442
20
33.494430396458654
10
55
20
32
10
45.659810022133449
20
30.505569603541346
42
-0.079494450586080845
10
39.340189977866544
20
30.505569603541353
10
30
20
32
10
39.340189977866544
20
33.494430396458647
42
-0.079494450586080498
0
LWPOLYLINE
5
141
100
AcDbEntity
8
0
100
AcDbPolyline
90
6
70
1
43
0.0
10
45.659810022133442
20
38.494430396458654
10
55
20
37
10
45.659810022133449
20
35.505569603541346
42
-0.079494450586080845
10
39.340189977866544
20
35.505569603541353
10
30
20
37
10
39.340189977866544
20
38.494430396458647
42
-0.079494450586080498
0
LWPOLYLINE
5
142
100
AcDbEntity
8
0
100
AcDbPolyline
90
6
70
1
43
0.0
10
45.659810022133442
20
43.494430396458654
10
55
20
42
10
45.659810022133449
20
40.505569603541346
42
-0.079494450586080845
10
39.340189977866544
20
40.505569603541353
10
30
20
42
10
39.340189977866551
20
43.49443039645864
42
-0.079494450586080387
0
LWPOLYLINE
5
143
100
AcDbEntity
8
0
100
AcDbPolyline
90
6
70
1
43
0.0
10
45.659810022133442
20
48.494430396458654
10
55
20
47
10
45.659810022133449
20
45.505569603541346
42
-0.079494450586080845
10
39.340189977866544
20
45.505569603541353
10
30
20
47
10
39.340189977866551
20
48.49443039645864
42
-0.079494450586080387
0
LWPOLYLINE
5
144
100
AcDbEntity
8
0
100
AcDbPolyline
90
6
70
1
43
0.0
10
45.659810022133442
20
53.494430396458654
10
55
20
52
10
45.659810022133449
20
50.505569603541346
42
-0.079494450586080845
10
39.340189977866544
20
50.505569603541353
10
30
20
52
10
39.340189977866551
20
53.49443039645864
42
-0.079494450586080387
0
LWPOLYLINE
5
145
100
AcDbEntity
8
0
100
AcDbPolyline
90
6
70
1
43
0.0
10
45.659810022133442
20
58.494430396458654
10
55
20
57
10
45.659810022133449
20
55.505569603541346
42
-0.079494450586080845
10
39.340189977866544
20
55.505569603541353
10
30
20
57
10
39.340189977866551
20
58.49443039645864
42
-0.079494450586080387
0
LWPOLYLINE
5
146
100
AcDbEntity
8
0
100
AcDbPolyline
90
6
70
1
43
0.0
10
45.659810022133442
20
63.494430396458654
10
55
20
62
10
45.659810022133449
20
60.505569603541346
42
-0.079494450586080845
10
39.340189977866544
20
60.505569603541353
10
30
20
62
10
39.340189977866551
20
63.49443039645864
42
-0.079494450586080387
0
LWPOLYLINE
5
147
100
AcDbEntity
8
0
100
AcDbPolyline
90
6
70
1
43
0.0
10
45.659810022133442
20
68.494430396458654
10
55
20
67
10
45.659810022133449
20
65.505569603541346
42
-0.079494450586080845
10
39.340189977866544
20
65.505569603541346
10
30
20
67
10
39.340189977866551
20
68.49443039645864
42
-0.079494450586080387
0
LWPOLYLINE
5
148
100
AcDbEntity
8
0
100
AcDbPolyline
90
6
70
1
43
0.0
10
45.659810022133442
20
73.494430396458654
10
55
20
72
10
45.659810022133449
20
70.505569603541346
42
-0.079494450586080845
10
39.340189977866544
20
70.505569603541346
10
30
20
72
10
39.340189977866551
20
73.49443039645864
42
-0.079494450586080387
0
LWPOLYLINE
5
149
100
AcDbEntity
8
0
100
AcDbPolyline
90
6
70
1
43
0.0
10
45.659810022133442
20
78.494430396458654
10
55
20
77
10
45.659810022133449
20
75.505569603541346
42
-0.079494450586080845
10
39.340189977866544
20
75.505569603541346
10
30
20
77
10
39.340189977866551
20
78.49443039645864
42
-0.079494450586080387
0
LWPOLYLINE
5
150
100
AcDbEntity
8
0
100
AcDbPolyline
90
6
70
1
43
0.0
10
45.659810022133442
20
83.49443039645864
10
55
20
82
10
45.659810022133442
20
80.50556960354136
42
-0.079494450586080845
10
39.340189977866544
20
80.50556960354136
10
30
20
82
10
39.340189977866551
20
83.49443039645864
42
-0.079494450586080387
0
LWPOLYLINE
5
151
100
AcDbEntity
8
0
100
AcDbPolyline
90
6
70
1
43
0.0
10
45.659810022133442
20
88.49443039645864
10
55
20
87
10
45.659810022133442
20
85.50556960354136
42
-0.079494450586080845
10
39.340189977866544
20
85.50556960354136
10
30
20
87
10
39.340189977866551
20
88.49443039645864
42
-0.079494450586080387
0
LWPOLYLINE
5
152
100
AcDbEntity
8
0
100
AcDbPolyline
90
6
70
1
43
0.0
10
45.659810022133442
20
93.49443039645864
10
55
20
92
10
45.659810022133442
20
90.50556960354136
42
-0.079494450586080845
10
39.340189977866544
20
90.50556960354136
10
30
20
92
10
39.340189977866551
20
93.49443039645864
42
-0.079494450586080387
0
LWPOLYLINE
5
153
100
AcDbEntity
8
0
100
AcDbPolyline
90
6
70
1
43
0.0
10
45.659810022133442
20
98.49443039645864
10
55
20
97
10
45.659810022133442
20
95.50556960354136
42
-0.079494450586080845
10
39.340189977866544
20
95.50556960354136
10
30
20
97
10
39.340189977866551
20
98.49443039645864
42
-0.079494450586080387
0
LWPOLYLINE
5
154
100
AcDbEntity
8
0
100
AcDbPolyline
90
6
70
1
43
0.0
10
45.659810022133442
20
103.49443039645864
10
55
20
102
10
45.659810022133442
20
100.50556960354136
42
-0.079494450586080845
10
39.340189977866544
20
100.50556960354136
10
30
20
102
10
39.340189977866551
20
103.49443039645864
42
-0.079494450586080387
0
LWPOLYLINE
5
155
100
AcDbEntity
8
0
100
AcDbPolyline
90
6
70
1
43
0.0
10
45.659810022133442
20
108.49443039645864
10
55
20
107
10
45.659810022133442
20
105.50556960354136
42
-0.079494450586080845
10
39.340189977866544
20
105.50556960354136
10
30
20
107
10
39.340189977866551
20
108.49443039645864
42
-0.079494450586080387
0
LWPOLYLINE
5
156
100
AcDbEntity
8
0
100
AcDbPolyline
90
6
70
1
43
0.0
10
45.659810022133442
20
113.49443039645864
10
55
20
112
10
45.659810022133442
20
110.50556960354136
42
-0.079494450586080845
10
39.340189977866544
20
110.50556960354136
10
30
20
112
10
39.340189977866551
20
113.49443039645864
42
-0.079494450586080387
0
LWPOLYLINE
5
157
100
AcDbEntity
8
0
100
AcDbPolyline
90
6
70
1
43
0.0
10
45.659810022133442
20
118.49443039645864
10
55
20
117
10
45.659810022133442
20
115.50556960354136
42
-0.079494450586080845
10
39.340189977866544
20
115.50556960354136
10
30
20
117
10
39.340189977866551
20
118.49443039645864
42
-0.079494450586080387
0
LWPOLYLINE
5
158
100
AcDbEntity
8
0
100
AcDbPolyline
90
6
70
1
43
0.0
10
45.659810022133442
20
123.49443039645864
10
55
20
122
10
45.659810022133442
20
120.50556960354136
42
-0.079494450586080845
10
39.340189977866544
20
120.50556960354136
10
30
20
122
10
39.340189977866551
20
123.49443039645864
42
-0.079494450586080387
0
LWPOLYLINE
5
159
100
AcDbEntity
8
0
100
AcDbPolyline
90
6
70
1
43
0.0
10
45.659810022133442
20
128.49443039645865
10
55
20
127
10
45.659810022133442
20
125.50556960354136
42
-0.079494450586080845
10
39.340189977866544
20
125.50556960354136
10
30
20
127
10
39.340189977866551
20
128.49443039645865
42
-0.079494450586080387
0
LWPOLYLINE
5
160
100
AcDbEntity
8
0
100
AcDbPolyline
90
6
70
1
43
0.0
10
45.659810022133442
20
133.49443039645865
10
55
20
132
10
45.659810022133442
20
130.50556960354135
42
-0.079494450586080845
10
39.340189977866544
20
130.50556960354135
10
30
20
132
10
39.340189977866551
20
133.49443039645865
42
-0.079494450586080387
0
LWPOLYLINE
5
161
100
AcDbEntity
8
0
100
AcDbPolyline
90
6
70
1
43
0.0
10
45.659810022133442
20
138.49443039645865
10
55
20
137
10
45.659810022133442
20
135.50556960354135
42
-0.079494450586080845
10
39.340189977866544
20
135.50556960354135
10
30
20
137
10
39.340189977866551
20
138.49443039645865
42
-0.079494450586080387
0
LWPOLYLINE
5
162
100
AcDbEntity
8
0
100
AcDbPolyline
90
6
70
1
43
0.0
10
45.659810022133442
20
143.49443039645865
10
55
20
142
10
45.659810022133449
20
140.50556960354135
42
-0.079494450586080956
10
39.340189977866544
20
140.50556960354135
10
30
20
142
10
39.340189977866551
20
143.49443039645865
42
-0.079494450586080387
0
LWPOLYLINE
5
163
100
AcDbEntity
8
0
100
AcDbPolyline
90
6
70
1
43
0.0
10
45.659810022133442
20
148.49443039645865
10
55
20
147
10
45.659810022133449
20
145.50556960354135
42
-0.079494450586080956
10
39.340189977866544
20
145.50556960354135
10
30
20
147
10
39.340189977866551
20
148.49443039645865
42
-0.079494450586080387
0
LWPOLYLINE
5
164
100
AcDbEntity
8
0
100
AcDbPolyline
90
6
70
1
43
0.0
10
45.659810022133442
20
153.49443039645865
10
55
20
152
10
45.659810022133449
20
150.50556960354135
42
-0.079494450586080956
10
39.340189977866544
20
150.50556960354135
10
30
20
152
10
39.340189977866551
20
153.49443039645865
42
-0.079494450586080387
0
LWPOLYLINE
5
165
100
AcDbEntity
8
0
100
AcDbPolyline
90
6
70
1
43
0.0
10
75.659810022133442
20
3.4944303964586503
10
85
20
2
10
75.659810022133456
20
0.50556960354135272
42
-0.079494450586080956
10
69.340189977866544
20
0.50556960354135372
10
60
20
2
10
69.340189977866544
20
3.4944303964586441
42
-0.079494450586080498
0
LWPOLYLINE
5
166
100
AcDbEntity
8
0
100
AcDbPolyline
90
6
70
1
43
0.0
10
75.659810022133442
20
8.4944303964586503
10
85
20
7
10
75.659810022133456
20
5.5055696035413524
42
-0.079494450586080956
10
69.340189977866544
20
5.5055696035413533
10
60
20
7
10
69.340189977866544
20
8.4944303964586449
42
-0.079494450586080498
0
LWPOLYLINE
5
167
100
AcDbEntity
8
0
100
AcDbPolyline
90
6
70
1
43
0.0
10
75.659810022133442
20
13.49443039645865
10
85
20
12
10
75.659810022133456
20
10.505569603541353
42
-0.079494450586080956
10
69.340189977866544
20
10.505569603541353
10
60
20
12
10
69.340189977866544
20
13.494430396458643
42
-0.079494450586080498
0
LWPOLYLINE
5
168
100
AcDbEntity
8
0
100
AcDbPolyline
90
6
70
1
43
0.0
10
75.659810022133442
20
18.49443039645865
10
85
20
17
10
75.659810022133456
20
15.505569603541353
42
-0.079494450586080956
10
69.340189977866544
20
15.505569603541353
10
60
20
17
10
69.340189977866544
20
18.494430396458643
42
-0.079494450586080498
0
LWPOLYLINE
5
169
100
AcDbEntity
8
0
100
AcDbPolyline
90
6
70
1
43
0.0
10
75.659810022133442
20
23.494430396458654
10
85
20
22
10
75.659810022133456
20
20.505569603541346
42
-0.079494450586080845
10
69.340189977866544
20
20.505569603541353
10
60
20
22
10
69.340189977866544
20
23.494430396458647
42
-0.079494450586080498
0
LWPOLYLINE
5
170
100
AcDbEntity
8
0
100
AcDbPolyline
90
6
70
1
43
0.0
10
75.659810022133442
20
28.494430396458654
10
85
20
27
10
75.659810022133456
20
25.505569603541346
42
-0.079494450586080845
10
69.340189977866544
20
25.505569603541353
10
60
20
27
10
69.340189977866544
20
28.494430396458647
42
-0.079494450586080498
0
LWPOLYLINE
5
171
100
AcDbEntity
8
0
100
AcDbPolyline
90
6
70
1
43
0.0
10
75.659810022133442
20
33.494430396458654
10
85
20
32
10
75.659810022133456
20
30.505569603541346
42
-0.079494450586080845
10
69.340189977866544
20
30.505569603541353
10
60
20
32
10
69.340189977866544
20
33.494430396458647
42
-0.079494450586080498
0
LWPOLYLINE
5
172
100
AcDbEntity
8
0
100
AcDbPolyline
90
6
70
1
43
0.0
10
75.659810022133442
20
38.494430396458654
10
85
20
37
10
75.659810022133456
20
35.505569603541346
42
-0.079494450586080845
10
69.340189977866544
20
35.505569603541353
10
60
20
37
10
69.340189977866544
20
38.494430396458647
42
-0.079494450586080498
0
LWPOLYLINE
5
173
100
AcDbEntity
8
0
100
AcDbPolyline
90
6
70
1
43
0.0
10
75.659810022133442
20
43.494430396458654
10
85
20
42
10
75.659810022133456
20
40.505569603541346
42
-0.079494450586080845
10
69.340189977866544
20
40.505569603541353
10
60
20
42
10
69.340189977866544
20
43.49443039645864
42
-0.079494450586080387
0
LWPOLYLINE
5
174
100
AcDbEntity
8
0
100
AcDbPolyline
90
6
70
1
43
0.0
10
75.659810022133442
20
48.494430396458654
10
85
20
47
10
75.659810022133456
20
45.505569603541346
42
-0.079494450586080845
10
69.340189977866544
20
45.505569603541353
10
60
20
47
10
69.340189977866544
20
48.49443039645864
42
-0.079494450586080387
0
LWPOLYLINE
5
175
100
AcDbEntity
8
0
100
AcDbPolyline
90
6
70
1
43
0.0
10
75.659810022133442
20
53.494430396458654
10
85
20
52
10
75.659810022133456
20
50.505569603541346
42
-0.079494450586080845
10
69.340189977866544
20
50.505569603541353
10
60
20
52
10
69.340189977866544
20
53.49443039645864
42
-0.079494450586080387
0
LWPOLYLINE
5
176
100
AcDbEntity
8
0
100
AcDbPolyline
90
6
70
1
43
0.0
10
75.659810022133442
20
58.494430396458654
10
85
20
57
10
75.659810022133456
20
55.505569603541346
42
-0.079494450586080845
10
69.340189977866544
20
55.505569603541353
10
60
20
57
10
69.340189977866544
20
58.49443039645864
42
-0.079494450586080387
0
LWPOLYLINE
5
177
100
AcDbEntity
8
0
100
AcDbPolyline
90
6
70
1
43
0.0
10
75.659810022133442
20
63.494430396458654
10
85
20
62
10
75.659810022133456
20
60.505569603541346
42
-0.079494450586080845
10
69.340189977866544
20
60.505569603541353
10
60
20
62
10
69.340189977866544
20
63.49443039645864
42
-0.079494450586080387
0
LWPOLYLINE
5
178
100
AcDbEntity
8
0
100
AcDbPolyline
90
6
70
1
43
0.0
10
75.659810022133442
20
68.494430396458654
10
85
20
67
10
75.659810022133456
20
65.505569603541346
42
-0.079494450586080845
10
69.340189977866544
20
65.505569603541346
10
60
20
67
10
69.340189977866544
20
68.49443039645864
42
-0.079494450586080387
0
LWPOLYLINE
5
179
100
AcDbEntity
8
0
100
AcDbPolyline
90
6
70
1
43
0.0
10
75.659810022133442
20
73.494430396458654
10
85
20
72
10
75.659810022133456
20
70.505569603541346
42
-0.079494450586080845
10
69.340189977866544
20
70.505569603541346
10
60
20
72
10
69.340189977866544
20
73.49443039645864
42
-0.079494450586080387
0
LWPOLYLINE
5
180
100
AcDbEntity
8
0
100
AcDbPolyline
90
6
70
1
43
0.0
10
75.659810022133442
20
78.494430396458654
10
85
20
77
10
75.659810022133456
20
75.505569603541346
42
-0.079494450586080845
10
69.340189977866544
20
75.505569603541346
10
60
20
77
10
69.340189977866544
20
78.49443039645864
42
-0.079494450586080387
0
LWPOLYLINE
5
181
100
AcDbEntity
8
0
100
AcDbPolyline
90
6
70
1
43
0.0
10
75.659810022133442
20
83.49443039645864
10
85
20
82
10
75.659810022133456
20
80.50556960354136
42
-0.079494450586080845
10
69.340189977866544
20
80.50556960354136
10
60
20
82
10
69.340189977866544
20
83.49443039645864
42
-0.079494450586080387
0
LWPOLYLINE
5
182
100
AcDbEntity
8
0
100
AcDbPolyline
90
6
70
1
43
0.0
10
75.659810022133442
20
88.49443039645864
10
85
20
87
10
75.659810022133456
20
85.50556960354136
42
-0.079494450586080845
10
69.340189977866544
20
85.50556960354136
10
60
20
87
10
69.340189977866544
20
88.49443039645864
42
-0.079494450586080387
0
LWPOLYLINE
5
183
100
AcDbEntity
8
0
100
AcDbPolyline
90
6
70
1
43
0.0
10
75.659810022133442
20
93.49443039645864
10
85
20
92
10
75.659810022133456
20
90.50556960354136
42
-0.079494450586080845
10
69.340189977866544
20
90.50556960354136
10
60
20
92
10
69.340189977866544
20
93.49443039645864
42
-0.079494450586080387
0
LWPOLYLINE
5
184
100
AcDbEntity
8
0
100
AcDbPolyline
90
6
70
1
43
0.0
10
75.659810022133442
20
98.49443039645864
10
85
20
97
10
75.659810022133456
20
95.50556960354136
42
-0.079494450586080845
10
69.340189977866544
20
95.50556960354136
10
60
20
97
10
69.340189977866544
20
98.49443039645864
42
-0.079494450586080387
0
LWPOLYLINE
5
185
100
AcDbEntity
8
0
100
AcDbPolyline
90
6
70
1
43
0.0
10
75.659810022133442
20
103.49443039645864
10
85
20
102
10
75.659810022133456
20
100.50556960354136
42
-0.079494450586080845
10
69.340189977866544
20
100.50556960354136
10
60
20
102
10
69.340189977866544
20
103.49443039645864
42
-0.079494450586080387
0
LWPOLYLINE
5
186
100
AcDbEntity
8
0
100
AcDbPolyline
90
6
70
1
43
0.0
10
75.659810022133442
20
108.49443039645864
10
85
20
107
10
75.659810022133456
20
105.50556960354136
42
-0.079494450586080845
10
69.340189977866544
20
105.50556960354136
10
60
20
107
10
69.340189977866544
20
108.49443039645864
42
-0.079494450586080387
0
LWPOLYLINE
5
187
100
AcDbEntity
8
0
100
AcDbPolyline
90
6
70
1
43
0.0
10
75.659810022133442
20
113.49443039645864
10
85
20
112
10
75.659810022133456
20
110.50556960354136
42
-0.079494450586080845
10
69.340189977866544
20
110.50556960354136
10
60
20
112
10
69.340189977866544
20
113.49443039645864
42
-0.079494450586080387
0
LWPOLYLINE
5
188
100
AcDbEntity
8
0
100
AcDbPolyline
90
6
70
1
43
0.0
10
75.659810022133442
20
118.49443039645864
10
85
20
117
10
75.659810022133456
20
115.50556960354136
42
-0.079494450586080845
10
69.340189977866544
20
115.50556960354136
10
60
20
117
10
69.340189977866544
20
118.49443039645864
42
-0.079494450586080387
0
LWPOLYLINE
5
189
100
AcDbEntity
8
0
100
AcDbPolyline
90
6
70
1
43
0.0
10
75.659810022133442
20
123.49443039645864
10
85
20
122
10
75.659810022133456
20
120.50556960354136
42
-0.079494450586080845
10
69.340189977866544
20
120.50556960354136
10
60
20
122
10
69.340189977866544
20
123.49443039645864
42
-0.079494450586080387
0
LWPOLYLINE
5
190
100
AcDbEntity
8
0
100
AcDbPolyline
90
6
70
1
43
0.0
10
75.659810022133442
20
128.49443039645865
10
85
20
127
10
75.659810022133456
20
125.50556960354136
42
-0.079494450586080845
10
69.340189977866544
20
125.50556960354136
10
60
20
127
10
69.340189977866544
20
128.49443039645865
42
-0.079494450586080387
0
LWPOLYLINE
5
191
100
AcDbEntity
8
0
100
AcDbPolyline
90
6
70
1
43
0.0
10
75.659810022133442
20
133.49443039645865
10
85
20
132
10
75.659810022133456
20
130.50556960354135
42
-0.079494450586080845
10
69.340189977866544
20
130.50556960354135
10
60
20
132
10
69.340189977866544
20
133.49443039645865
42
-0.079494450586080387
0
LWPOLYLINE
5
192
100
AcDbEntity
8
0
100
AcDbPolyline
90
6
70
1
43
0.0
10
75.659810022133442
20
138.49443039645865
10
85
20
137
10
75.659810022133456
20
135.50556960354135
42
-0.079494450586080845
10
69.340189977866544
20
135.50556960354135
10
60
20
137
10
69.340189977866544
20
138.49443039645865
42
-0.079494450586080387
0
LWPOLYLINE
5
193
100
AcDbEntity
8
0
100
AcDbPolyline
90
6
70
1
43
0.0
10
75.659810022133442
20
143.49443039645865
10
85
20
142
10
75.659810022133456
20
140.50556960354135
42
-0.079494450586080956
10
69.340189977866544
20
140.50556960354135
10
60
20
142
10
69.340189977866544
20
143.49443039645865
42
-0.079494450586080387
0
LWPOLYLINE
5
194
100
AcDbEntity
8
0
100
AcDbPolyline
90
6
70
1
43
0.0
10
75.659810022133442
20
148.49443039645865
10
85
20
147
10
75.659810022133456
20
145.50556960354135
42
-0.079494450586080956
10
69.340189977866544
20
145.50556960354135
10
60
20
147
10
69.340189977866544
20
148.49443039645865
42
-0.079494450586080387
0
LWPOLYLINE
5
195
100
AcDbEntity
8
0
100
AcDbPolyline
90
6
70
1
43
0.0
10
75.659810022133442
20
153.49443039645865
10
85
20
152
10
75.659810022133456
20
150.50556960354135
42
-0.079494450586080956
10
69.340189977866544
20
150.50556960354135
10
60
20
152
10
69.340189977866544
20
153.49443039645865
42
-0.079494450586080387
0
LWPOLYLINE
5
196
100
AcDbEntity
8
0
100
AcDbPolyline
90
6
70
1
43
0.0
10
105.65981002213346
20
3.4944303964586503
10
115
20
2
10
105.65981002213343
20
0.50556960354135305
42
-0.079494450586080609
10
99.340189977866544
20
0.50556960354135372
10
90
20
2
10
99.340189977866544
20
3.4944303964586512
42
-0.079494450586080498
0
LWPOLYLINE
5
197
100
AcDbEntity
8
0
100
AcDbPolyline
90
6
70
1
43
0.0
10
105.65981002213346
20
8.4944303964586503
10
115
20
7
10
105.65981002213343
20
5.5055696035413524
42
-0.079494450586080609
10
99.340189977866544
20
5.5055696035413533
10
90
20
7
10
99.340189977866544
20
8.4944303964586503
42
-0.079494450586080498
0
LWPOLYLINE
5
198
100
AcDbEntity
8
0
100
AcDbPolyline
90
6
70
1
43
0.0
10
105.65981002213346
20
13.49443039645865
10
115
20
12
10
105.65981002213343
20
10.505569603541353
42
-0.079494450586080609
10
99.340189977866544
20
10.505569603541353
10
90
20
12
10
99.340189977866544
20
13.494430396458652
42
-0.079494450586080498
0
LWPOLYLINE
5
199
100
AcDbEntity
8
0
100
AcDbPolyline
90
6
70
1
43
0.0
10
105.65981002213346
20
18.49443039645865
10
115
20
17
10
105.65981002213343
20
15.505569603541353
42
-0.079494450586080609
10
99.340189977866544
20
15.505569603541353
10
90
20
17
10
99.340189977866544
20
18.494430396458654
42
-0.079494450586080498
0
LWPOLYLINE
5
200
100
AcDbEntity
8
0
100
AcDbPolyline
90
6
70
1
43
0.0
10
105.65981002213346
20
23.494430396458654
10
115
20
22
10
105.65981002213346
20
20.505569603541353
42
-0.07949445058608072
10
99.340189977866544
20
20.505569603541353
10
90
20
22
10
99.340189977866544
20
23.494430396458654
42
-0.079494450586080387
0
LWPOLYLINE
5
201
100
AcDbEntity
8
0
100
AcDbPolyline
90
6
70
1
43
0.0
10
105.65981002213346
20
28.494430396458654
10
115
20
27
10
105.65981002213346
20
25.505569603541353
42
-0.07949445058608072
10
99.340189977866544
20
25.505569603541353
10
90
20
27
10
99.340189977866544
20
28.494430396458654
42
-0.079494450586080387
0
LWPOLYLINE
5
202
100
AcDbEntity
8
0
100
AcDbPolyline
90
6
70
1
43
0.0
10
105.65981002213346
20
33.494430396458654
10
115
20
32
10
105.65981002213346
20
30.505569603541353
42
-0.07949445058608072
10
99.340189977866544
20
30.505569603541353
10
90
20
32
10
99.340189977866544
20
33.494430396458654
42
-0.079494450586080387
0
LWPOLYLINE
5
203
100
AcDbEntity
8
0
100
AcDbPolyline
90
6
70
1
43
0.0
10
105.65981002213346
20
38.494430396458654
10
115
20
37
10
105.65981002213346
20
35.505569603541353
42
-0.07949445058608072
10
99.340189977866544
20
35.505569603541353
10
90
20
37
10
99.340189977866544
20
38.494430396458654
42
-0.079494450586080387
0
LWPOLYLINE
5
204
100
AcDbEntity
8
0
100
AcDbPolyline
90
6
70
1
43
0.0
10
105.65981002213346
20
43.494430396458654
10
115
20
42
10
105.65981002213346
20
40.505569603541353
42
-0.07949445058608072
10
99.340189977866544
20
40.505569603541353
10
90
20
42
10
99.340189977866544
20
43.494430396458654
42
-0.079494450586080498
0
LWPOLYLINE
5
205
100
AcDbEntity
8
0
100
AcDbPolyline
90
6
70
1
43
0.0
10
105.65981002213346
20
48.494430396458654
10
115
20
47
10
105.65981002213346
20
45.505569603541353
42
-0.07949445058608072
10
99.340189977866544
20
45.505569603541353
10
90
20
47
10
99.340189977866544
20
48.494430396458654
42
-0.079494450586080498
0
LWPOLYLINE
5
206
100
AcDbEntity
8
0
100
AcDbPolyline
90
6
70
1
43
0.0
10
105.65981002213346
20
53.494430396458654
10
115
20
52
10
105.65981002213346
20
50.505569603541353
42
-0.07949445058608072
10
99.340189977866544
20
50.505569603541353
10
90
20
52
10
99.340189977866544
20
53.494430396458654
42
-0.079494450586080498
0
LWPOLYLINE
5
207
100
AcDbEntity
8
0
100
AcDbPolyline
90
6
70
1
43
0.0
10
105.65981002213346
20
58.494430396458654
10
115
20
57
10
105.65981002213346
20
55.505569603541353
42
-0.07949445058608072
10
99.340189977866544
20
55.505569603541353
10
90
20
57
10
99.340189977866544
20
58.494430396458654
42
-0.079494450586080498
0
LWPOLYLINE
5
208
100
AcDbEntity
8
0
100
AcDbPolyline
90
6
70
1
43
0.0
10
105.65981002213346
20
63.494430396458654
10
115
20
62
10
105.65981002213346
20
60.505569603541353
42
-0.07949445058608072
10
99.340189977866544
20
60.505569603541353
10
90
20
62
10
99.340189977866544
20
63.494430396458654
42
-0.079494450586080498
0
LWPOLYLINE
5
209
100
AcDbEntity
8
0
100
AcDbPolyline
90
6
70
1
43
0.0
10
105.65981002213346
20
68.494430396458654
10
115
20
67
10
105.65981002213346
20
65.505569603541346
42
-0.07949445058608072
10
99.340189977866544
20
65.505569603541346
10
90
20
67
10
99.340189977866544
20
68.494430396458654
42
-0.079494450586080498
0
LWPOLYLINE
5
210
100
AcDbEntity
8
0
100
AcDbPolyline
90
6
70
1
43
0.0
10
105.65981002213346
20
73.494430396458654
10
115
20
72
10
105.65981002213346
20
70.505569603541346
42
-0.07949445058608072
10
99.340189977866544
20
70.505569603541346
10
90
20
72
10
99.340189977866544
20
73.494430396458654
42
-0.079494450586080498
0
LWPOLYLINE
5
211
100
AcDbEntity
8
0
100
AcDbPolyline
90
6
70
1
43
0.0
10
105.65981002213346
20
78.494430396458654
10
115
20
77
10
105.65981002213346
20
75.505569603541346
42
-0.07949445058608072
10
99.340189977866544
20
75.505569603541346
10
90
20
77
10
99.340189977866544
20
78.494430396458654
42
-0.079494450586080498
0
LWPOLYLINE
5
212
100
AcDbEntity
8
0
100
AcDbPolyline
90
6
70
1
43
0.0
10
105.65981002213346
20
83.49443039645864
10
115
20
82
10
105.65981002213343
20
80.50556960354136
42
-0.07949445058608072
10
99.340189977866544
20
80.50556960354136
10
90
20
82
10
99.340189977866544
20
83.49443039645864
42
-0.079494450586080498
0
LWPOLYLINE
5
213
100
AcDbEntity
8
0
100
AcDbPolyline
90
6
70
1
43
0.0
10
105.65981002213346
20
88.49443039645864
10
115
20
87
10
105.65981002213343
20
85.50556960354136
42
-0.07949445058608072
10
99.340189977866544
20
85.50556960354136
10
90
20
87
10
99.340189977866544
20
88.49443039645864
42
-0.079494450586080498
0
LWPOLYLINE
5
214
100
AcDbEntity
8
0
100
AcDbPolyline
90
6
70
1
43
0.0
10
105.65981002213346
20
93.49443039645864
10
115
20
92
10
105.65981002213343
20
90.50556960354136
42
-0.07949445058608072
10
99.340189977866544
20
90.50556960354136
10
90
20
92
10
99.340189977866544
20
93.49443039645864
42
-0.079494450586080498
0
LWPOLYLINE
5
215
100
AcDbEntity
8
0
100
AcDbPolyline
90
6
70
1
43
0.0
10
105.65981002213346
20
98.49443039645864
10
115
20
97
10
105.65981002213343
20
95.50556960354136
42
-0.07949445058608072
10
99.340189977866544
20
95.50556960354136
10
90
20
97
10
99.340189977866544
20
98.49443039645864
42
-0.079494450586080498
0
LWPOLYLINE
5
216
100
AcDbEntity
8
0
100
AcDbPolyline
90
6
70
1
43
0.0
10
105.65981002213346
20
103.49443039645864
10
115
20
102
10
105.65981002213343
20
100.50556960354136
42
-0.07949445058608072
10
99.340189977866544
20
100.50556960354136
10
90
20
102
10
99.340189977866544
20
103.49443039645864
42
-0.079494450586080498
0
LWPOLYLINE
5
217
100
AcDbEntity
8
0
100
AcDbPolyline
90
6
70
1
43
0.0
10
105.65981002213346
20
108.49443039645864
10
115
20
107
10
105.65981002213343
20
105.50556960354136
42
-0.07949445058608072
10
99.340189977866544
20
105.50556960354136
10
90
20
107
10
99.340189977866544
20
108.49443039645864
42
-0.079494450586080498
0
LWPOLYLINE
5
218
100
AcDbEntity
8
0
100
AcDbPolyline
90
6
70
1
43
0.0
10
105.65981002213346
20
113.49443039645864
10
115
20
112
10
105.65981002213343
20
110.50556960354136
42
-0.07949445058608072
10
99.340189977866544
20
110.50556960354136
10
90
20
112
10
99.340189977866544
20
113.49443039645864
42
-0.079494450586080498
0
LWPOLYLINE
5
219
100
AcDbEntity
8
0
100
AcDbPolyline
90
6
70
1
43
0.0
10
105.65981002213346
20
118.49443039645864
10
115
20
117
10
105.65981002213343
20
115.50556960354136
42
-0.07949445058608072
10
99.340189977866544
20
115.50556960354136
10
90
20
117
10
99.340189977866544
20
118.49443039645864
42
-0.079494450586080498
0
LWPOLYLINE
5
220
100
AcDbEntity
8
0
100
AcDbPolyline
90
6
70
1
43
0.0
10
105.65981002213346
20
123.49443039645864
10
115
20
122
10
105.65981002213343
20
120.50556960354136
42
-0.07949445058608072
10
99.340189977866544
20
120.50556960354136
10
90
20
122
10
99.340189977866544
20
123.49443039645864
42
-0.079494450586080498
0
LWPOLYLINE
5
221
100
AcDbEntity
8
0
100
AcDbPolyline
90
6
70
1
43
0.0
10
105.65981002213346
20
128.49443039645865
10
115
20
127
10
105.65981002213343
20
125.50556960354136
42
-0.07949445058608072
10
99.340189977866544
20
125.50556960354136
10
90
20
127
10
99.340189977866544
20
128.49443039645865
42
-0.079494450586080498
0
LWPOLYLINE
5
222
100
AcDbEntity
8
0
100
AcDbPolyline
90
6
70
1
43
0.0
10
105.65981002213346
20
133.49443039645865
10
115
20
132
10
105.65981002213343
20
130.50556960354135
42
-0.07949445058608072
10
99.340189977866544
20
130.50556960354135
10
90
20
132
10
99.340189977866544
20
133.49443039645865
42
-0.079494450586080498
0
LWPOLYLINE
5
223
100
AcDbEntity
8
0
100
AcDbPolyline
90
6
70
1
43
0.0
10
105.65981002213346
20
138.49443039645865
10
115
20
137
10
105.65981002213343
20
135.50556960354135
42
-0.07949445058608072
10
99.340189977866544
20
135.50556960354135
10
90
20
137
10
99.340189977866544
20
138.49443039645865
42
-0.079494450586080498
0
LWPOLYLINE
5
224
100
AcDbEntity
8
0
100
AcDbPolyline
90
6
70
1
43
0.0
10
105.65981002213346
20
143.49443039645865
10
115
20
142
10
105.65981002213346
20
140.50556960354135
42
-0.079494450586080845
10
99.340189977866544
20
140.50556960354135
10
90
20
142
10
99.340189977866544
20
143.49443039645865
42
-0.079494450586080498
0
LWPOLYLINE
5
225
100
AcDbEntity
8
0
100
AcDbPolyline
90
6
70
1
43
0.0
10
105.65981002213346
20
148.49443039645865
10
115
20
147
10
105.65981002213346
20
145.50556960354135
42
-0.079494450586080845
10
99.340189977866544
20
145.50556960354135
10
90
20
147
10
99.340189977866544
20
148.49443039645865
42
-0.079494450586080498
0
LWPOLYLINE
5
226
100
AcDbEntity
8
0
100
AcDbPolyline
90
6
70
1
43
0.0
10
105.65981002213346
20
153.49443039645865
10
115
20
152
10
105.65981002213346
20
150.50556960354135
42
-0.079494450586080845
10
99.340189977866544
20
150.50556960354135
10
90
20
152
10
99.340189977866544
20
153.49443039645865
42
-0.079494450586080498
0
LWPOLYLINE
5
227
100
AcDbEntity
8
0
100
AcDbPolyline
90
6
70
1
43
0.0
10
135.65981002213346
20
3.4944303964586503
10
145
20
2
10
135.65981002213343
20
0.50556960354135305
42
-0.079494450586080609
10
129.34018997786654
20
0.50556960354135372
10
120
20
2
10
129.34018997786654
20
3.4944303964586512
42
-0.079494450586080498
0
LWPOLYLINE
5
228
100
AcDbEntity
8
0
100
AcDbPolyline
90
6
70
1
43
0.0
10
135.65981002213346
20
8.4944303964586503
10
145
20
7
10
135.65981002213343
20
5.5055696035413524
42
-0.079494450586080609
10
129.34018997786654
20
5.5055696035413533
10
120
20
7
10
129.34018997786654
20
8.4944303964586503
42
-0.079494450586080498
0
LWPOLYLINE
5
229
100
AcDbEntity
8
0
100
AcDbPolyline
90
6
70
1
43
0.0
10
135.65981002213346
20
13.49443039645865
10
145
20
12
10
135.65981002213343
20
10.505569603541353
42
-0.079494450586080609
10
129.34018997786654
20
10.505569603541353
10
120
20
12
10
129.34018997786654
20
13.494430396458652
42
-0.079494450586080498
0
LWPOLYLINE
5
230
100
AcDbEntity
8
0
100
AcDbPolyline
90
6
70
1
43
0.0
10
135.65981002213346
20
18.49443039645865
10
145
20
17
10
135.65981002213343
20
15.505569603541353
42
-0.079494450586080609
10
129.34018997786654
20
15.505569603541353
10
120
20
17
10
129.34018997786654
20
18.494430396458654
42
-0.079494450586080498
0
LWPOLYLINE
5
231
100
AcDbEntity
8
0
100
AcDbPolyline
90
6
70
1
43
0.0
10
135.65981002213346
20
23.494430396458654
10
145
20
22
10
135.65981002213346
20
20.505569603541353
42
-0.07949445058608072
10
129.34018997786654
20
20.505569603541353
10
120
20
22
10
129.34018997786654
20
23.494430396458654
42
-0.079494450586080387
0
LWPOLYLINE
5
232
100
AcDbEntity
8
0
100
AcDbPolyline
90
6
70
1
43
0.0
10
135.65981002213346
20
28.494430396458654
10
145
20
27
10
135.65981002213346
20
25.505569603541353
42
-0.07949445058608072
10
129.34018997786654
20
25.505569603541353
10
120
20
27
10
129.34018997786654
20
28.494430396458654
42
-0.079494450586080387
0
LWPOLYLINE
5
233
100
AcDbEntity
8
0
100
AcDbPolyline
90
6
70
1
43
0.0
10
135.65981002213346
20
33.494430396458654
10
145
20
32
10
135.65981002213346
20
30.505569603541353
42
-0.07949445058608072
10
129.34018997786654
20
30.505569603541353
10
120
20
32
10
129.34018997786654
20
33.494430396458654
42
-0.079494450586080387
0
LWPOLYLINE
5
234
100
AcDbEntity
8
0
100
AcDbPolyline
90
6
70
1
43
0.0
10
135.65981002213346
20
38.494430396458654
10
145
20
37
10
135.65981002213346
20
35.505569603541353
42
-0.07949445058608072
10
129.34018997786654
20
35.505569603541353
10
120
20
37
10
129.34018997786654
20
38.494430396458654
42
-0.079494450586080387
0
LWPOLYLINE
5
235
100
AcDbEntity
8
0
100
AcDbPolyline
90
6
70
1
43
0.0
10
135.65981002213346
20
43.494430396458654
10
145
20
42
10
135.65981002213346
20
40.505569603541353
42
-0.07949445058608072
10
129.34018997786654
20
40.505569603541353
10
120
20
42
10
129.34018997786654
20
43.494430396458654
42
-0.079494450586080498
0
LWPOLYLINE
5
236
100
AcDbEntity
8
0
100
AcDbPolyline
90
6
70
1
43
0.0
10
135.65981002213346
20
48.494430396458654
10
145
20
47
10
135.65981002213346
20
45.505569603541353
42
-0.07949445058608072
10
129.34018997786654
20
45.505569603541353
10
120
20
47
10
129.34018997786654
20
48.494430396458654
42
-0.079494450586080498
0
LWPOLYLINE
5
237
100
AcDbEntity
8
0
100
AcDbPolyline
90
6
70
1
43
0.0
10
135.65981002213346
20
53.494430396458654
10
145
20
52
10
135.65981002213346
20
50.505569603541353
42
-0.07949445058608072
10
129.34018997786654
20
50.505569603541353
10
120
20
52
10
129.34018997786654
20
53.494430396458654
42
-0.079494450586080498
0
LWPOLYLINE
5
238
100
AcDbEntity
8
0
100
AcDbPolyline
90
6
70
1
43
0.0
10
135.65981002213346
20
58.494430396458654
10
145
20
57
10
135.65981002213346
20
55.505569603541353
42
-0.07949445058608072
10
129.34018997786654
20
55.505569603541353
10
120
20
57
10
129.34018997786654
20
58.494430396458654
42
-0.079494450586080498
0
LWPOLYLINE
5
239
100
AcDbEntity
8
0
100
AcDbPolyline
90
6
70
1
43
0.0
10
135.65981002213346
20
63.494430396458654
10
145
20
62
10
135.65981002213346
20
60.505569603541353
42
-0.07949445058608072
10
129.34018997786654
20
60.505569603541353
10
120
20
62
10
129.34018997786654
20
63.494430396458654
42
-0.079494450586080498
0
LWPOLYLINE
5
240
100
AcDbEntity
8
0
100
AcDbPolyline
90
6
70
1
43
0.0
10
135.65981002213346
20
68.494430396458654
10
145
20
67
10
135.65981002213346
20
65.505569603541346
42
-0.07949445058608072
10
129.34018997786654
20
65.505569603541346
10
120
20
67
10
129.34018997786654
20
68.494430396458654
42
-0.079494450586080498
0
LWPOLYLINE
5
241
100
AcDbEntity
8
0
100
AcDbPolyline
90
6
70
1
43
0.0
10
135.65981002213346
20
73.494430396458654
10
145
20
72
10
135.65981002213346
20
70.505569603541346
42
-0.07949445058608072
10
129.34018997786654
20
70.505569603541346
10
120
20
72
10
129.34018997786654
20
73.494430396458654
42
-0.079494450586080498
0
LWPOLYLINE
5
242
100
AcDbEntity
8
0
100
AcDbPolyline
90
6
70
1
43
0.0
10
135.65981002213346
20
78.494430396458654
10
145
20
77
10
135.65981002213346
20
75.505569603541346
42
-0.07949445058608072
10
129.34018997786654
20
75.505569603541346
10
120
20
77
10
129.34018997786654
20
78.494430396458654
42
-0.079494450586080498
0
LWPOLYLINE
5
243
100
AcDbEntity
8
0
100
AcDbPolyline
90
6
70
1
43
0.0
10
135.65981002213346
20
83.49443039645864
10
145
20
82
10
135.65981002213343
20
80.50556960354136
42
-0.07949445058608072
10
129.34018997786654
20
80.50556960354136
10
120
20
82
10
129.34018997786654
20
83.49443039645864
42
-0.079494450586080498
0
LWPOLYLINE
5
244
100
AcDbEntity
8
0
100
AcDbPolyline
90
6
70
1
43
0.0
10
135.65981002213346
20
88.49443039645864
10
145
20
87
10
135.65981002213343
20
85.50556960354136
42
-0.07949445058608072
10
129.34018997786654
20
85.50556960354136
10
120
20
87
10
129.34018997786654
20
88.49443039645864
42
-0.079494450586080498
0
LWPOLYLINE
5
245
100
AcDbEntity
8
0
100
AcDbPolyline
90
6
70
1
43
0.0
10
135.65981002213346
20
93.49443039645864
10
145
20
92
10
135.65981002213343
20
90.50556960354136
42
-0.07949445058608072
10
129.34018997786654
20
90.50556960354136
10
120
20
92
10
129.34018997786654
20
93.49443039645864
42
-0.079494450586080498
0
LWPOLYLINE
5
246
100
AcDbEntity
8
0
100
AcDbPolyline
90
6
70
1
43
0.0
10
135.65981002213346
20
98.49443039645864
10
145
20
97
10
135.65981002213343
20
95.50556960354136
42
-0.07949445058608072
10
129.34018997786654
20
95.50556960354136
10
120
20
97
10
129.34018997786654
20
98.49443039645864
42
-0.079494450586080498
0
LWPOLYLINE
5
247
100
AcDbEntity
8
0
100
AcDbPolyline
90
6
70
1
43
0.0
10
135.65981002213346
20
103.49443039645864
10
145
20
102
10
135.65981002213343
20
100.50556960354136
42
-0.07949445058608072
10
129.34018997786654
20
100.50556960354136
10
120
20
102
10
129.34018997786654
20
103.49443039645864
42
-0.079494450586080498
0
LWPOLYLINE
5
248
100
AcDbEntity
8
0
100
AcDbPolyline
90
6
70
1
43
0.0
10
135.65981002213346
20
108.49443039645864
10
145
20
107
10
135.65981002213343
20
105.50556960354136
42
-0.07949445058608072
10
129.34018997786654
20
105.50556960354136
10
120
20
107
10
129.34018997786654
20
108.49443039645864
42
-0.079494450586080498
0
LWPOLYLINE
5
249
100
AcDbEntity
8
0
100
AcDbPolyline
90
6
70
1
43
0.0
10
135.65981002213346
20
113.49443039645864
10
145
20
112
10
135.65981002213343
20
110.50556960354136
42
-0.07949445058608072
10
129.34018997786654
20
110.50556960354136
10
120
20
112
10
129.34018997786654
20
113.49443039645864
42
-0.079494450586080498
0
LWPOLYLINE
5
250
100
AcDbEntity
8
0
100
AcDbPolyline
90
6
70
1
43
0.0
10
135.65981002213346
20
118.49443039645864
10
145
20
117
10
135.65981002213343
20
115.50556960354136
42
-0.07949445058608072
10
129.34018997786654
20
115.50556960354136
10
120
20
117
10
129.34018997786654
20
118.49443039645864
42
-0.079494450586080498
0
LWPOLYLINE
5
251
100
AcDbEntity
8
0
100
AcDbPolyline
90
6
70
1
43
0.0
10
135.65981002213346
20
123.49443039645864
10
145
20
122
10
135.65981002213343
20
120.50556960354136
42
-0.07949445058608072
10
129.34018997786654
20
120.50556960354136
10
120
20
122
10
129.34018997786654
20
123.49443039645864
42
-0.079494450586080498
0
LWPOLYLINE
5
252
100
AcDbEntity
8
0
100
AcDbPolyline
90
6
70
1
43
0.0
10
135.65981002213346
20
128.49443039645865
10
145
20
127
10
135.65981002213343
20
125.50556960354136
42
-0.07949445058608072
10
129.34018997786654
20
125.50556960354136
10
120
20
127
10
129.34018997786654
20
128.49443039645865
42
-0.079494450586080498
0
LWPOLYLINE
5
253
100
AcDbEntity
8
0
100
AcDbPolyline
90
6
70
1
43
0.0
10
135.65981002213346
20
133.49443039645865
10
145
20
132
10
135.65981002213343
20
130.50556960354135
42
-0.07949445058608072
10
129.34018997786654
20
130.50556960354135
10
120
20
132
10
129.34018997786654
20
133.49443039645865
42
-0.079494450586080498
0
LWPOLYLINE
5
254
100
AcDbEntity
8
0
100
AcDbPolyline
90
6
70
1
43
0.0
10
135.65981002213346
20
138.49443039645865
10
145
20
137
10
135.65981002213343
20
135.50556960354135
42
-0.07949445058608072
10
129.34018997786654
20
135.50556960354135
10
120
20
137
10
129.34018997786654
20
138.49443039645865
42
-0.079494450586080498
0
LWPOLYLINE
5
255
100
AcDbEntity
8
0
100
AcDbPolyline
90
6
70
1
43
0.0
10
135.65981002213346
20
143.49443039645865
10
145
20
142
10
135.65981002213346
20
140.50556960354135
42
-0.079494450586080845
10
129.34018997786654
20
140.50556960354135
10
120
20
142
10
129.34018997786654
20
143.49443039645865
42
-0.079494450586080498
0
LWPOLYLINE
5
256
100
AcDbEntity
8
0
100
AcDbPolyline
90
6
70
1
43
0.0
10
135.65981002213346
20
148.49443039645865
10
145
20
147
10
135.65981002213346
20
145.50556960354135
42
-0.079494450586080845
10
129.34018997786654
20
145.50556960354135
10
120
20
147
10
129.34018997786654
20
148.49443039645865
42
-0.079494450586080498
0
LWPOLYLINE
5
257
100
AcDbEntity
8
0
100
AcDbPolyline
90
6
70
1
43
0.0
10
135.65981002213346
20
153.49443039645865
10
145
20
152
10
135.65981002213346
20
150.50556960354135
42
-0.079494450586080845
10
129.34018997786654
20
150.50556960354135
10
120
20
152
10
129.34018997786654
20
153.49443039645865
42
-0.079494450586080498
0
LWPOLYLINE
5
258
100
AcDbEntity
8
0
100
AcDbPolyline
90
6
70
1
43
0.0
10
165.65981002213346
20
3.4944303964586503
10
175
20
2
10
165.65981002213346
20
0.50556960354135305
42
-0.079494450586080609
10
159.34018997786654
20
0.50556960354135372
10
150
20
2
10
159.34018997786654
20
3.4944303964586512
42
-0.079494450586080498
0
LWPOLYLINE
5
259
100
AcDbEntity
8
0
100
AcDbPolyline
90
6
70
1
43
0.0
10
165.65981002213346
20
8.4944303964586503
10
175
20
7
10
165.65981002213346
20
5.5055696035413524
42
-0.079494450586080609
10
159.34018997786654
20
5.5055696035413533
10
150
20
7
10
159.34018997786654
20
8.4944303964586503
42
-0.079494450586080498
0
LWPOLYLINE
5
260
100
AcDbEntity
8
0
100
AcDbPolyline
90
6
70
1
43
0.0
10
165.65981002213346
20
13.49443039645865
10
175
20
12
10
165.65981002213346
20
10.505569603541353
42
-0.079494450586080609
10
159.34018997786654
20
10.505569603541353
10
150
20
12
10
159.34018997786654
20
13.494430396458652
42
-0.079494450586080498
0
LWPOLYLINE
5
261
100
AcDbEntity
8
0
100
AcDbPolyline
90
6
70
1
43
0.0
10
165.65981002213346
20
18.49443039645865
10
175
20
17
10
165.65981002213346
20
15.505569603541353
42
-0.079494450586080609
10
159.34018997786654
20
15.505569603541353
10
150
20
17
10
159.34018997786654
20
18.494430396458654
42
-0.079494450586080498
0
LWPOLYLINE
5
262
100
AcDbEntity
8
0
100
AcDbPolyline
90
6
70
1
43
0.0
10
165.65981002213346
20
23.494430396458654
10
175
20
22
10
165.65981002213346
20
20.505569603541353
42
-0.07949445058608072
10
159.34018997786654
20
20.505569603541353
10
150
20
22
10
159.34018997786654
20
23.494430396458654
42
-0.079494450586080387
0
LWPOLYLINE
5
263
100
AcDbEntity
8
0
100
AcDbPolyline
90
6
70
1
43
0.0
10
165.65981002213346
20
28.494430396458654
10
175
20
27
10
165.65981002213346
20
25.505569603541353
42
-0.07949445058608072
10
159.34018997786654
20
25.505569603541353
10
150
20
27
10
159.34018997786654
20
28.494430396458654
42
-0.079494450586080387
0
LWPOLYLINE
5
264
100
AcDbEntity
8
0
100
AcDbPolyline
90
6
70
1
43
0.0
10
165.65981002213346
20
33.494430396458654
10
175
20
32
10
165.65981002213346
20
30.505569603541353
42
-0.07949445058608072
10
159.34018997786654
20
30.505569603541353
10
150
20
32
10
159.34018997786654
20
33.494430396458654
42
-0.079494450586080387
0
LWPOLYLINE
5
265
100
AcDbEntity
8
0
100
AcDbPolyline
90
6
70
1
43
0.0
10
165.65981002213346
20
38.494430396458654
10
175
20
37
10
165.65981002213346
20
35.505569603541353
42
-0.07949445058608072
10
159.34018997786654
20
35.505569603541353
10
150
20
37
10
159.34018997786654
20
38.494430396458654
42
-0.079494450586080387
0
LWPOLYLINE
5
266
100
AcDbEntity
8
0
100
AcDbPolyline
90
6
70
1
43
0.0
10
165.65981002213346
20
43.494430396458654
10
175
20
42
10
165.65981002213346
20
40.505569603541353
42
-0.07949445058608072
10
159.34018997786654
20
40.505569603541353
10
150
20
42
10
159.34018997786654
20
43.494430396458654
42
-0.079494450586080498
0
LWPOLYLINE
5
267
100
AcDbEntity
8
0
100
AcDbPolyline
90
6
70
1
43
0.0
10
165.65981002213346
20
48.494430396458654
10
175
20
47
10
165.65981002213346
20
45.505569603541353
42
-0.07949445058608072
10
159.34018997786654
20
45.505569603541353
10
150
20
47
10
159.34018997786654
20
48.494430396458654
42
-0.079494450586080498
0
LWPOLYLINE
5
268
100
AcDbEntity
8
0
100
AcDbPolyline
90
6
70
1
43
0.0
10
165.65981002213346
20
53.494430396458654
10
175
20
52
10
165.65981002213346
20
50.505569603541353
42
-0.07949445058608072
10
159.34018997786654
20
50.505569603541353
10
150
20
52
10
159.34018997786654
20
53.494430396458654
42
-0.079494450586080498
0
LWPOLYLINE
5
269
100
AcDbEntity
8
0
100
AcDbPolyline
90
6
70
1
43
0.0
10
165.65981002213346
20
58.494430396458654
10
175
20
57
10
165.65981002213346
20
55.505569603541353
42
-0.07949445058608072
10
159.34018997786654
20
55.505569603541353
10
150
20
57
10
159.34018997786654
20
58.494430396458654
42
-0.079494450586080498
0
LWPOLYLINE
5
270
100
AcDbEntity
8
0
100
AcDbPolyline
90
6
70
1
43
0.0
10
165.65981002213346
20
63.494430396458654
10
175
20
62
10
165.65981002213346
20
60.505569603541353
42
-0.07949445058608072
10
159.34018997786654
20
60.505569603541353
10
150
20
62
10
159.34018997786654
20
63.494430396458654
42
-0.079494450586080498
0
LWPOLYLINE
5
271
100
AcDbEntity
8
0
100
AcDbPolyline
90
6
70
1
43
0.0
10
165.65981002213346
20
68.494430396458654
10
175
20
67
10
165.65981002213346
20
65.505569603541346
42
-0.07949445058608072
10
159.34018997786654
20
65.505569603541346
10
150
20
67
10
159.34018997786654
20
68.494430396458654
42
-0.079494450586080498
0
LWPOLYLINE
5
272
100
AcDbEntity
8
0
100
AcDbPolyline
90
6
70
1
43
0.0
10
165.65981002213346
20
73.494430396458654
10
175
20
72
10
165.65981002213346
20
70.505569603541346
42
-0.07949445058608072
10
159.34018997786654
20
70.505569603541346
10
150
20
72
10
159.34018997786654
20
73.494430396458654
42
-0.079494450586080498
0
LWPOLYLINE
5
273
100
AcDbEntity
8
0
100
AcDbPolyline
90
6
70
1
43
0.0
10
165.65981002213346
20
78.494430396458654
10
175
20
77
10
165.65981002213346
20
75.505569603541346
42
-0.07949445058608072
10
159.34018997786654
20
75.505569603541346
10
150
20
77
10
159.34018997786654
20
78.494430396458654
42
-0.079494450586080498
0
LWPOLYLINE
5
274
100
AcDbEntity
8
0
100
AcDbPolyline
90
6
70
1
43
0.0
10
165.65981002213346
20
83.49443039645864
10
175
20
82
10
165.65981002213346
20
80.50556960354136
42
-0.07949445058608072
10
159.34018997786654
20
80.50556960354136
10
150
20
82
10
159.34018997786654
20
83.49443039645864
42
-0.079494450586080498
0
LWPOLYLINE
5
275
100
AcDbEntity
8
0
100
AcDbPolyline
90
6
70
1
43
0.0
10
165.65981002213346
20
88.49443039645864
10
175
20
87
10
165.65981002213346
20
85.50556960354136
42
-0.07949445058608072
10
159.34018997786654
20
85.50556960354136
10
150
20
87
10
159.34018997786654
20
88.49443039645864
42
-0.079494450586080498
0
LWPOLYLINE
5
276
100
AcDbEntity
8
0
100
AcDbPolyline
90
6
70
1
43
0.0
10
165.65981002213346
20
93.49443039645864
10
175
20
92
10
165.65981002213346
20
90.50556960354136
42
-0.07949445058608072
10
159.34018997786654
20
90.50556960354136
10
150
20
92
10
159.34018997786654
20
93.49443039645864
42
-0.079494450586080498
0
LWPOLYLINE
5
277
100
AcDbEntity
8
0
100
AcDbPolyline
90
6
70
1
43
0.0
10
165.65981002213346
20
98.49443039645864
10
175
20
97
10
165.65981002213346
20
95.50556960354136
42
-0.07949445058608072
10
159.34018997786654
20
95.50556960354136
10
150
20
97
10
159.34018997786654
20
98.49443039645864
42
-0.079494450586080498
0
LWPOLYLINE
5
278
100
AcDbEntity
8
0
100
AcDbPolyline
90
6
70
1
43
0.0
10
165.65981002213346
20
103.49443039645864
10
175
20
102
10
165.65981002213346
20
100.50556960354136
42
-0.07949445058608072
10
159.34018997786654
20
100.50556960354136
10
150
20
102
10
159.34018997786654
20
103.49443039645864
42
-0.079494450586080498
0
LWPOLYLINE
5
279
100
AcDbEntity
8
0
100
AcDbPolyline
90
6
70
1
43
0.0
10
165.65981002213346
20
108.49443039645864
10
175
20
107
10
165.65981002213346
20
105.50556960354136
42
-0.07949445058608072
10
159.34018997786654
20
105.50556960354136
10
150
20
107
10
159.34018997786654
20
108.49443039645864
42
-0.079494450586080498
0
LWPOLYLINE
5
280
100
AcDbEntity
8
0
100
AcDbPolyline
90
6
70
1
43
0.0
10
165.65981002213346
20
113.49443039645864
10
175
20
112
10
165.65981002213346
20
110.50556960354136
42
-0.07949445058608072
10
159.34018997786654
20
110.50556960354136
10
150
20
112
10
159.34018997786654
20
113.49443039645864
42
-0.079494450586080498
0
LWPOLYLINE
5
281
100
AcDbEntity
8
0
100
AcDbPolyline
90
6
70
1
43
0.0
10
165.65981002213346
20
118.49443039645864
10
175
20
117
10
165.65981002213346
20
115.50556960354136
42
-0.07949445058608072
10
159.34018997786654
20
115.50556960354136
10
150
20
117
10
159.34018997786654
20
118.49443039645864
42
-0.079494450586080498
0
LWPOLYLINE
5
282
100
AcDbEntity
8
0
100
AcDbPolyline
90
6
70
1
43
0.0
10
165.65981002213346
20
123.49443039645864
10
175
20
122
10
165.65981002213346
20
120.50556960354136
42
-0.07949445058608072
10
159.34018997786654
20
120.50556960354136
10
150
20
122
10
159.34018997786654
20
123.49443039645864
42
-0.079494450586080498
0
LWPOLYLINE
5
283
100
AcDbEntity
8
0
100
AcDbPolyline
90
6
70
1
43
0.0
10
165.65981002213346
20
128.49443039645865
10
175
20
127
10
165.65981002213346
20
125.50556960354136
42
-0.07949445058608072
10
159.34018997786654
20
125.50556960354136
10
150
20
127
10
159.34018997786654
20
128.49443039645865
42
-0.079494450586080498
0
LWPOLYLINE
5
284
100
AcDbEntity
8
0
100
AcDbPolyline
90
6
70
1
43
0.0
10
165.65981002213346
20
133.49443039645865
10
175
20
132
10
165.65981002213346
20
130.50556960354135
42
-0.07949445058608072
10
159.34018997786654
20
130.50556960354135
10
150
20
132
10
159.34018997786654
20
133.49443039645865
42
-0.079494450586080498
0
LWPOLYLINE
5
285
100
AcDbEntity
8
0
100
AcDbPolyline
90
6
70
1
43
0.0
10
165.65981002213346
20
138.49443039645865
10
175
20
137
10
165.65981002213346
20
135.50556960354135
42
-0.07949445058608072
10
159.34018997786654
20
135.50556960354135
10
150
20
137
10
159.34018997786654
20
138.49443039645865
42
-0.079494450586080498
0
LWPOLYLINE
5
286
100
AcDbEntity
8
0
100
AcDbPolyline
90
6
70
1
43
0.0
10
165.65981002213346
20
143.49443039645865
10
175
20
142
10
165.65981002213346
20
140.50556960354135
42
-0.079494450586080845
10
159.34018997786654
20
140.50556960354135
10
150
20
142
10
159.34018997786654
20
143.49443039645865
42
-0.079494450586080498
0
LWPOLYLINE
5
287
100
AcDbEntity
8
0
100
AcDbPolyline
90
6
70
1
43
0.0
10
165.65981002213346
20
148.49443039645865
10
175
20
147
10
165.65981002213346
20
145.50556960354135
42
-0.079494450586080845
10
159.34018997786654
20
145.50556960354135
10
150
20
147
10
159.34018997786654
20
148.49443039645865
42
-0.079494450586080498
0
LWPOLYLINE
5
288
100
AcDbEntity
8
0
100
AcDbPolyline
90
6
70
1
43
0.0
10
165.65981002213346
20
153.49443039645865
10
175
20
152
10
165.65981002213346
20
150.50556960354135
42
-0.079494450586080845
10
159.34018997786654
20
150.50556960354135
10
150
20
152
10
159.34018997786654
20
153.49443039645865
42
-0.079494450586080498
0
ENDSEC
0
SECTION
2
OBJECTS
0
DICTIONARY
5
C
100
AcDbDictionary
3
ACAD_GROUP
350
D
3
ACAD_MLINESTYLE
350
17
0
DICTIONARY
5
D
100
AcDbDictionary
0
DICTIONARY
5
1A
330
C
100
AcDbDictionary
0
DICTIONARY
5
17
100
AcDbDictionary
0
ENDSEC
0
EOF
